<svg xmlns="http://www.w3.org/2000/svg" xmlns:xlink="http://www.w3.org/1999/xlink" width="375" zoomAndPan="magnify" viewBox="0 0 281.25 112.499997" height="150" preserveAspectRatio="xMidYMid meet" version="1.0"><defs><clipPath id="623867c75c"><path d="M 1.625 0 L 278.644531 0 L 278.644531 112.003906 L 1.625 112.003906 Z M 1.625 0 " clip-rule="nonzero"/></clipPath><clipPath id="2518711713"><path d="M 74.757812 36.238281 L 79.785156 36.238281 L 79.785156 37.714844 L 74.757812 37.714844 Z M 74.757812 36.238281 " clip-rule="nonzero"/></clipPath><clipPath id="27371fccbc"><path d="M 53.335938 20.257812 L 74.757812 20.257812 L 74.757812 42 L 53.335938 42 Z M 53.335938 20.257812 " clip-rule="nonzero"/></clipPath><clipPath id="36242b3a0e"><path d="M 35.699219 33.28125 L 53.335938 33.28125 L 53.335938 91.128906 L 35.699219 91.128906 Z M 35.699219 33.28125 " clip-rule="nonzero"/></clipPath><clipPath id="73a5eafacd"><path d="M 170 45.839844 L 182 45.839844 L 182 80.5625 L 170 80.5625 Z M 170 45.839844 " clip-rule="nonzero"/></clipPath><clipPath id="a030c2f968"><path d="M 182 45.101562 L 194 45.101562 L 194 81 L 182 81 Z M 182 45.101562 " clip-rule="nonzero"/></clipPath><clipPath id="eb48c8f177"><path d="M 137 44.226562 L 167 44.226562 L 167 91.117188 L 137 91.117188 Z M 137 44.226562 " clip-rule="nonzero"/></clipPath><clipPath id="0970e39a21"><path d="M 43.109375 50 L 61.460938 50 L 61.460938 80.5625 L 43.109375 80.5625 Z M 43.109375 50 " clip-rule="nonzero"/></clipPath><clipPath id="8f27de51b0"><path d="M 63 46.195312 L 80.667969 46.195312 L 80.667969 80.5625 L 63 80.5625 Z M 63 46.195312 " clip-rule="nonzero"/></clipPath><clipPath id="605ae564e3"><path d="M 49.136719 82.039062 L 52.59375 82.039062 L 52.59375 86.46875 L 49.136719 86.46875 Z M 49.136719 82.039062 " clip-rule="nonzero"/></clipPath><clipPath id="25a26abb35"><path d="M 126.46875 83.515625 L 130 83.515625 L 130 87.683594 L 126.46875 87.683594 Z M 126.46875 83.515625 " clip-rule="nonzero"/></clipPath><clipPath id="0a5ea2e42a"><path d="M 139 83.515625 L 141.980469 83.515625 L 141.980469 87.683594 L 139 87.683594 Z M 139 83.515625 " clip-rule="nonzero"/></clipPath></defs><g clip-path="url(#623867c75c)"><rect x="-28.125" width="337.5" fill="#ffffff" y="-11.25" height="134.999996" fill-opacity="1"/><rect x="-28.125" width="337.5" fill="#ffffff" y="-11.25" height="134.999996" fill-opacity="1"/></g><g clip-path="url(#2518711713)"><path fill="#00488e" d="M 74.777344 36.617188 L 79.785156 37.078125 L 74.777344 37.042969 Z M 74.777344 36.617188 " fill-opacity="1" fill-rule="nonzero"/></g><path fill="#00488e" d="M 72.21875 36.40625 L 72.21875 37.046875 L 55.910156 36.949219 L 55.921875 34.914062 Z M 72.21875 36.40625 " fill-opacity="1" fill-rule="nonzero"/><g clip-path="url(#27371fccbc)"><path fill="#00488e" d="M 54.027344 40.054688 C 54.03125 37.621094 54.0625 29.4375 54.027344 28.539062 C 54 27.953125 54.351562 25.300781 56.445312 23.121094 C 58.257812 21.242188 60.792969 20.289062 63.992188 20.289062 C 73.574219 20.289062 74.03125 29.074219 74.03125 29.179688 L 74.03125 40.050781 C 74.320312 40.238281 74.515625 40.566406 74.515625 40.933594 C 74.515625 41.523438 74.039062 42 73.449219 42 C 72.863281 42 72.386719 41.523438 72.386719 40.933594 C 72.386719 40.507812 72.640625 40.144531 73.007812 39.972656 L 73.007812 29.195312 C 72.996094 28.875 72.597656 21.308594 63.984375 21.308594 C 61.078125 21.308594 58.785156 22.152344 57.175781 23.828125 C 55.476562 25.589844 55.019531 27.871094 55.042969 28.5 C 55.078125 29.417969 55.054688 37.429688 55.046875 39.972656 C 55.410156 40.144531 55.671875 40.507812 55.671875 40.933594 C 55.671875 41.523438 55.195312 42 54.605469 42 C 54.019531 42 53.542969 41.523438 53.542969 40.933594 C 53.542969 40.566406 53.738281 40.242188 54.027344 40.054688 Z M 54.027344 40.054688 " fill-opacity="1" fill-rule="nonzero"/></g><g clip-path="url(#36242b3a0e)"><path fill="#00488e" d="M 40.199219 34.9375 L 40.886719 33.5625 L 41.167969 33.585938 L 46.96875 34.117188 L 53.183594 34.683594 L 53.167969 36.929688 L 45.164062 36.882812 C 31.28125 60.21875 46.699219 90.675781 47.035156 91.332031 C 30.78125 68.402344 35.410156 42.78125 40.199219 34.9375 Z M 40.199219 34.9375 " fill-opacity="1" fill-rule="nonzero"/></g><g clip-path="url(#73a5eafacd)"><path fill="#00488e" d="M 181.890625 51.464844 C 181.464844 51.257812 181.082031 51.09375 180.734375 50.980469 C 180.386719 50.859375 180.019531 50.792969 179.625 50.792969 C 178.75 50.816406 178.164062 51.164062 177.871094 51.832031 C 177.578125 52.496094 177.433594 53.261719 177.433594 54.128906 L 177.433594 60.523438 L 181.890625 60.523438 L 181.890625 65.222656 L 177.433594 65.222656 L 177.433594 80.042969 L 171.871094 80.042969 L 171.871094 65.222656 L 170.011719 65.222656 L 170.011719 60.523438 L 171.871094 60.523438 L 171.871094 54.730469 C 171.871094 51.945312 172.511719 49.773438 173.796875 48.210938 C 175.082031 46.648438 176.890625 45.867188 179.222656 45.867188 C 180.230469 45.867188 181.117188 46.078125 181.890625 46.5 Z M 181.890625 51.464844 " fill-opacity="1" fill-rule="nonzero"/></g><g clip-path="url(#a030c2f968)"><path fill="#00488e" d="M 193.929688 51.464844 C 193.507812 51.257812 193.121094 51.09375 192.777344 50.980469 C 192.429688 50.859375 192.058594 50.792969 191.667969 50.792969 C 190.789062 50.816406 190.203125 51.164062 189.914062 51.832031 C 189.617188 52.496094 189.476562 53.261719 189.476562 54.128906 L 189.476562 60.523438 L 193.929688 60.523438 L 193.929688 65.222656 L 189.476562 65.222656 L 189.476562 80.042969 L 183.910156 80.042969 L 183.910156 65.222656 L 182.054688 65.222656 L 182.054688 60.523438 L 183.910156 60.523438 L 183.910156 54.730469 C 183.910156 51.945312 184.550781 49.773438 185.839844 48.210938 C 187.121094 46.648438 188.933594 45.867188 191.265625 45.867188 C 192.269531 45.867188 193.160156 46.078125 193.929688 46.5 Z M 193.929688 51.464844 " fill-opacity="1" fill-rule="nonzero"/></g><path fill="#00488e" d="M 200.246094 71.179688 C 200.246094 72.792969 200.585938 74.074219 201.273438 75.023438 C 201.964844 75.964844 202.90625 76.429688 204.101562 76.429688 C 205.03125 76.429688 205.792969 76.183594 206.386719 75.679688 C 206.988281 75.171875 207.472656 74.535156 207.839844 73.765625 L 212.964844 74.59375 C 212.273438 76.589844 211.136719 78.101562 209.5625 79.132812 C 207.992188 80.160156 206.171875 80.679688 204.101562 80.679688 C 201.214844 80.679688 198.875 79.738281 197.074219 77.863281 C 195.273438 75.976562 194.371094 73.511719 194.371094 70.464844 C 194.371094 67.261719 195.21875 64.699219 196.910156 62.777344 C 198.601562 60.855469 200.90625 59.890625 203.824219 59.890625 C 206.738281 59.890625 209.011719 60.832031 210.636719 62.71875 C 212.265625 64.597656 213.082031 67.261719 213.082031 70.707031 L 213.082031 71.179688 Z M 207.839844 67.726562 C 207.65625 66.503906 207.21875 65.542969 206.527344 64.839844 C 205.839844 64.144531 205.03125 63.792969 204.101562 63.792969 C 203.230469 63.792969 202.453125 64.113281 201.757812 64.75 C 201.070312 65.382812 200.621094 66.375 200.410156 67.726562 Z M 207.839844 67.726562 " fill-opacity="1" fill-rule="nonzero"/><path fill="#00488e" d="M 227.785156 65.535156 C 227.097656 65.058594 226.335938 64.820312 225.488281 64.820312 C 224.058594 64.820312 222.988281 65.304688 222.28125 66.273438 C 221.578125 67.242188 221.230469 68.839844 221.230469 71.0625 L 221.230469 80.042969 L 215.667969 80.042969 L 215.667969 60.523438 L 221.230469 60.523438 L 221.230469 62.554688 L 221.3125 62.554688 C 221.863281 61.710938 222.550781 61.054688 223.378906 60.59375 C 224.199219 60.125 225.125 59.890625 226.160156 59.890625 C 226.925781 59.921875 227.695312 60.082031 228.46875 60.375 Z M 227.785156 65.535156 " fill-opacity="1" fill-rule="nonzero"/><path fill="#00488e" d="M 240.269531 65.140625 C 239.871094 64.773438 239.417969 64.457031 238.910156 64.195312 C 238.40625 63.925781 237.882812 63.792969 237.328125 63.792969 C 236.871094 63.792969 236.453125 63.949219 236.070312 64.265625 C 235.691406 64.582031 235.503906 64.976562 235.503906 65.453125 C 235.503906 65.960938 235.71875 66.363281 236.148438 66.652344 C 236.589844 66.949219 237.273438 67.277344 238.203125 67.648438 L 239.507812 68.164062 C 240.730469 68.644531 241.703125 69.324219 242.429688 70.210938 C 243.160156 71.09375 243.527344 72.28125 243.527344 73.765625 C 243.527344 75.78125 242.816406 77.441406 241.402344 78.738281 C 239.984375 80.03125 238.160156 80.679688 235.929688 80.679688 C 234.582031 80.679688 233.3125 80.390625 232.121094 79.824219 C 230.925781 79.253906 229.910156 78.457031 229.0625 77.421875 L 231.601562 74.121094 C 232.160156 74.730469 232.785156 75.261719 233.472656 75.714844 C 234.164062 76.160156 234.917969 76.382812 235.734375 76.382812 C 236.339844 76.382812 236.867188 76.195312 237.304688 75.808594 C 237.742188 75.421875 237.960938 74.914062 237.960938 74.285156 C 237.960938 73.675781 237.730469 73.199219 237.269531 72.851562 C 236.808594 72.507812 236.109375 72.148438 235.179688 71.777344 C 233.488281 71.140625 232.355469 70.5625 231.785156 70.046875 C 231.214844 69.535156 230.804688 68.960938 230.550781 68.339844 C 230.296875 67.714844 230.171875 67.007812 230.171875 66.214844 C 230.171875 64.386719 230.757812 62.875 231.9375 61.679688 C 233.121094 60.488281 234.597656 59.890625 236.371094 59.890625 C 237.507812 59.921875 238.644531 60.105469 239.785156 60.433594 C 240.929688 60.765625 241.886719 61.261719 242.648438 61.921875 Z M 240.269531 65.140625 " fill-opacity="1" fill-rule="nonzero"/><g clip-path="url(#eb48c8f177)"><path fill="#f7a800" d="M 152.539062 44.222656 C 152.402344 44.214844 152.265625 44.214844 152.125 44.214844 C 151.988281 44.214844 151.847656 44.214844 151.710938 44.222656 C 140.734375 44.5 133.949219 56.359375 139.050781 66.082031 L 142.976562 73.5625 L 152.125 91.003906 L 155.34375 84.867188 C 154.027344 82.421875 152.707031 79.976562 151.390625 77.535156 C 149.378906 73.800781 147.367188 70.066406 145.351562 66.335938 C 144.332031 64.4375 143.355469 62.503906 143.089844 60.339844 C 142.449219 55.105469 146.90625 50.453125 152.089844 50.433594 C 157.171875 50.410156 161.292969 54.519531 161.292969 59.597656 C 161.292969 64.660156 157.1875 68.765625 152.125 68.765625 C 151.957031 68.765625 151.792969 68.757812 151.625 68.75 L 157.726562 80.324219 L 161.277344 73.5625 L 165.195312 66.082031 C 170.300781 56.359375 163.519531 44.5 152.539062 44.222656 " fill-opacity="1" fill-rule="nonzero"/></g><g clip-path="url(#0970e39a21)"><path fill="#00488e" d="M 61.042969 50.078125 L 61.042969 55.167969 L 54.996094 55.167969 L 54.996094 80.042969 L 49.15625 80.042969 L 49.15625 55.167969 L 43.117188 55.167969 L 43.117188 50.078125 Z M 61.042969 50.078125 " fill-opacity="1" fill-rule="nonzero"/></g><g clip-path="url(#8f27de51b0)"><path fill="#00488e" d="M 68.589844 46.339844 L 68.589844 62.164062 L 68.671875 62.164062 C 69.277344 61.363281 70.023438 60.789062 70.910156 60.433594 C 71.800781 60.070312 72.75 59.890625 73.761719 59.890625 C 76.007812 59.890625 77.691406 60.578125 78.816406 61.945312 C 79.949219 63.308594 80.515625 65.3125 80.515625 67.957031 L 80.515625 80.042969 L 74.949219 80.042969 L 74.949219 68.640625 C 74.949219 67.578125 74.839844 66.753906 74.617188 66.15625 C 74.390625 65.558594 74.078125 65.105469 73.679688 64.808594 C 73.28125 64.5 72.683594 64.34375 71.890625 64.34375 C 70.753906 64.34375 69.917969 64.804688 69.386719 65.71875 C 68.855469 66.636719 68.589844 68.042969 68.589844 69.945312 L 68.589844 80.042969 L 63.027344 80.042969 L 63.027344 46.339844 Z M 68.589844 46.339844 " fill-opacity="1" fill-rule="nonzero"/></g><path fill="#00488e" d="M 88.976562 71.179688 C 88.976562 72.792969 89.316406 74.074219 90.003906 75.023438 C 90.695312 75.964844 91.636719 76.429688 92.832031 76.429688 C 93.761719 76.429688 94.523438 76.183594 95.117188 75.679688 C 95.71875 75.171875 96.203125 74.535156 96.570312 73.765625 L 101.695312 74.59375 C 101.003906 76.589844 99.867188 78.101562 98.292969 79.132812 C 96.722656 80.160156 94.902344 80.679688 92.832031 80.679688 C 89.945312 80.679688 87.605469 79.738281 85.804688 77.863281 C 84.003906 75.976562 83.101562 73.511719 83.101562 70.464844 C 83.101562 67.261719 83.949219 64.699219 85.640625 62.777344 C 87.332031 60.855469 89.636719 59.890625 92.554688 59.890625 C 95.46875 59.890625 97.742188 60.832031 99.367188 62.71875 C 100.996094 64.597656 101.8125 67.261719 101.8125 70.707031 L 101.8125 71.179688 Z M 96.570312 67.726562 C 96.386719 66.503906 95.949219 65.542969 95.257812 64.839844 C 94.570312 64.144531 93.761719 63.792969 92.832031 63.792969 C 91.960938 63.792969 91.183594 64.113281 90.488281 64.75 C 89.800781 65.382812 89.351562 66.375 89.140625 67.726562 Z M 96.570312 67.726562 " fill-opacity="1" fill-rule="nonzero"/><path fill="#00488e" d="M 121.882812 80.042969 L 116.320312 80.042969 L 116.320312 68.753906 C 116.320312 67.324219 116.105469 66.234375 115.6875 65.476562 C 115.261719 64.722656 114.464844 64.34375 113.296875 64.34375 C 112.242188 64.34375 111.421875 64.765625 110.839844 65.605469 C 110.253906 66.433594 109.960938 67.882812 109.960938 69.945312 L 109.960938 80.042969 L 104.398438 80.042969 L 104.398438 60.523438 L 109.960938 60.523438 L 109.960938 62.3125 L 110.042969 62.3125 C 110.625 61.445312 111.367188 60.824219 112.269531 60.457031 C 113.167969 60.082031 114.121094 59.890625 115.132812 59.890625 C 117.378906 59.890625 119.0625 60.578125 120.1875 61.945312 C 121.320312 63.308594 121.882812 65.3125 121.882812 67.957031 Z M 121.882812 80.042969 " fill-opacity="1" fill-rule="nonzero"/><path fill="#00488e" d="M 125.613281 52.339844 C 125.613281 51.472656 125.933594 50.707031 126.574219 50.042969 C 127.210938 49.375 127.992188 49.039062 128.917969 49.039062 C 129.84375 49.039062 130.628906 49.375 131.257812 50.042969 C 131.898438 50.707031 132.21875 51.472656 132.21875 52.339844 C 132.21875 53.273438 131.898438 54.058594 131.257812 54.695312 C 130.628906 55.328125 129.84375 55.640625 128.917969 55.640625 C 127.992188 55.640625 127.210938 55.328125 126.574219 54.695312 C 125.933594 54.058594 125.613281 53.273438 125.613281 52.339844 Z M 131.699219 60.523438 L 131.699219 80.042969 L 126.132812 80.042969 L 126.132812 60.523438 Z M 131.699219 60.523438 " fill-opacity="1" fill-rule="nonzero"/><g clip-path="url(#605ae564e3)"><path fill="#000000" d="M 51.242188 83.136719 L 51.242188 86.148438 L 50.410156 86.148438 L 50.410156 83.136719 L 49.339844 83.136719 L 49.339844 82.386719 L 52.316406 82.386719 L 52.316406 83.136719 Z M 51.242188 83.136719 " fill-opacity="1" fill-rule="nonzero"/></g><path fill="#000000" d="M 55.175781 84.765625 L 55.175781 86.148438 L 54.34375 86.148438 L 54.34375 84.765625 C 54.34375 84.625 54.3125 84.519531 54.25 84.441406 C 54.195312 84.367188 54.105469 84.324219 53.972656 84.324219 C 53.839844 84.324219 53.730469 84.390625 53.640625 84.511719 C 53.554688 84.625 53.511719 84.769531 53.511719 84.9375 L 53.511719 86.148438 L 52.679688 86.148438 L 52.679688 82.003906 L 53.511719 82.003906 L 53.511719 84.015625 C 53.597656 83.90625 53.699219 83.824219 53.824219 83.761719 C 53.953125 83.691406 54.09375 83.65625 54.25 83.65625 C 54.582031 83.65625 54.816406 83.761719 54.957031 83.96875 C 55.097656 84.167969 55.175781 84.433594 55.175781 84.765625 Z M 55.175781 84.765625 " fill-opacity="1" fill-rule="nonzero"/><path fill="#000000" d="M 56.507812 84.636719 L 57.59375 84.636719 C 57.59375 84.636719 57.585938 84.613281 57.582031 84.566406 C 57.570312 84.523438 57.550781 84.472656 57.511719 84.417969 C 57.480469 84.355469 57.425781 84.300781 57.351562 84.257812 C 57.28125 84.210938 57.179688 84.1875 57.050781 84.1875 C 56.925781 84.1875 56.824219 84.210938 56.75 84.257812 C 56.671875 84.300781 56.613281 84.355469 56.578125 84.417969 C 56.542969 84.472656 56.523438 84.523438 56.519531 84.566406 C 56.511719 84.613281 56.507812 84.636719 56.507812 84.636719 Z M 58.390625 84.878906 C 58.390625 84.902344 58.390625 84.929688 58.390625 84.960938 C 58.390625 84.984375 58.390625 85.007812 58.390625 85.03125 L 56.496094 85.03125 C 56.496094 85.121094 56.511719 85.214844 56.554688 85.308594 C 56.601562 85.398438 56.660156 85.476562 56.738281 85.539062 C 56.820312 85.59375 56.914062 85.617188 57.015625 85.617188 C 57.167969 85.617188 57.285156 85.582031 57.375 85.503906 C 57.457031 85.417969 57.5 85.328125 57.5 85.238281 L 58.34375 85.238281 C 58.273438 85.5625 58.117188 85.804688 57.882812 85.964844 C 57.640625 86.125 57.363281 86.207031 57.039062 86.207031 C 56.753906 86.207031 56.5 86.152344 56.289062 86.046875 C 56.082031 85.9375 55.914062 85.792969 55.792969 85.605469 C 55.675781 85.417969 55.617188 85.191406 55.617188 84.9375 C 55.617188 84.683594 55.679688 84.460938 55.804688 84.269531 C 55.925781 84.078125 56.09375 83.925781 56.300781 83.816406 C 56.511719 83.710938 56.761719 83.65625 57.039062 83.65625 C 57.285156 83.65625 57.503906 83.707031 57.707031 83.804688 C 57.914062 83.898438 58.078125 84.035156 58.203125 84.222656 C 58.324219 84.402344 58.390625 84.621094 58.390625 84.878906 Z M 58.390625 84.878906 " fill-opacity="1" fill-rule="nonzero"/><path fill="#000000" d="M 61.414062 84.765625 L 61.414062 86.148438 L 60.582031 86.148438 L 60.582031 84.765625 C 60.582031 84.625 60.550781 84.519531 60.492188 84.441406 C 60.4375 84.367188 60.34375 84.324219 60.214844 84.324219 C 60.082031 84.324219 59.972656 84.390625 59.878906 84.511719 C 59.792969 84.625 59.753906 84.769531 59.753906 84.9375 L 59.753906 86.148438 L 58.921875 86.148438 L 58.921875 83.714844 L 59.753906 83.714844 L 59.753906 84.015625 C 59.835938 83.90625 59.941406 83.824219 60.0625 83.761719 C 60.195312 83.691406 60.335938 83.65625 60.492188 83.65625 C 60.820312 83.65625 61.058594 83.761719 61.195312 83.96875 C 61.339844 84.167969 61.414062 84.433594 61.414062 84.765625 Z M 61.414062 84.765625 " fill-opacity="1" fill-rule="nonzero"/><path fill="#000000" d="M 61.949219 82.871094 C 61.949219 82.742188 61.996094 82.628906 62.089844 82.535156 C 62.183594 82.4375 62.296875 82.386719 62.4375 82.386719 C 62.566406 82.386719 62.679688 82.4375 62.769531 82.535156 C 62.867188 82.628906 62.921875 82.742188 62.921875 82.871094 C 62.921875 83.007812 62.867188 83.132812 62.769531 83.230469 C 62.679688 83.320312 62.566406 83.367188 62.4375 83.367188 C 62.296875 83.367188 62.183594 83.320312 62.089844 83.230469 C 61.996094 83.132812 61.949219 83.007812 61.949219 82.871094 Z M 62.851562 86.148438 L 62.019531 86.148438 L 62.019531 83.714844 L 62.851562 83.714844 Z M 62.851562 86.148438 " fill-opacity="1" fill-rule="nonzero"/><path fill="#000000" d="M 64.652344 82.003906 L 63.859375 83.65625 L 63.40625 83.65625 L 63.835938 82.003906 Z M 64.652344 82.003906 " fill-opacity="1" fill-rule="nonzero"/><path fill="#000000" d="M 67.296875 84.453125 L 66.488281 84.453125 C 66.472656 84.347656 66.421875 84.273438 66.339844 84.234375 C 66.25 84.195312 66.171875 84.175781 66.09375 84.175781 C 66.007812 84.175781 65.933594 84.195312 65.863281 84.234375 C 65.796875 84.273438 65.761719 84.324219 65.761719 84.394531 C 65.761719 84.449219 65.796875 84.492188 65.875 84.523438 C 65.953125 84.554688 66.050781 84.578125 66.164062 84.589844 C 66.285156 84.609375 66.414062 84.632812 66.546875 84.660156 C 66.683594 84.683594 66.8125 84.722656 66.925781 84.777344 C 67.046875 84.832031 67.148438 84.910156 67.226562 85.007812 C 67.300781 85.109375 67.34375 85.246094 67.34375 85.421875 C 67.34375 85.617188 67.289062 85.769531 67.179688 85.882812 C 67.078125 85.992188 66.9375 86.074219 66.753906 86.125 C 66.574219 86.179688 66.371094 86.207031 66.140625 86.207031 C 65.894531 86.207031 65.675781 86.175781 65.484375 86.113281 C 65.289062 86.046875 65.132812 85.941406 65.011719 85.804688 C 64.894531 85.660156 64.832031 85.46875 64.824219 85.238281 L 65.644531 85.238281 C 65.644531 85.363281 65.671875 85.449219 65.726562 85.503906 C 65.785156 85.558594 65.855469 85.59375 65.933594 85.605469 C 66.019531 85.625 66.089844 85.628906 66.152344 85.628906 C 66.246094 85.628906 66.328125 85.617188 66.394531 85.582031 C 66.464844 85.546875 66.5 85.492188 66.5 85.421875 C 66.5 85.339844 66.460938 85.277344 66.382812 85.238281 C 66.316406 85.191406 66.21875 85.15625 66.09375 85.132812 C 65.972656 85.109375 65.839844 85.085938 65.703125 85.0625 C 65.570312 85.042969 65.445312 85.011719 65.324219 84.972656 C 65.207031 84.925781 65.109375 84.863281 65.035156 84.777344 C 64.964844 84.691406 64.929688 84.578125 64.929688 84.429688 C 64.929688 84.175781 65.023438 83.984375 65.21875 83.851562 C 65.410156 83.722656 65.710938 83.65625 66.117188 83.65625 C 66.433594 83.65625 66.699219 83.722656 66.914062 83.851562 C 67.128906 83.976562 67.253906 84.175781 67.296875 84.453125 Z M 67.296875 84.453125 " fill-opacity="1" fill-rule="nonzero"/><path fill="#000000" d="M 71.035156 85.054688 C 71.035156 84.929688 70.988281 84.820312 70.894531 84.730469 C 70.804688 84.636719 70.695312 84.589844 70.574219 84.589844 L 70.054688 84.589844 L 70.054688 85.503906 L 70.574219 85.503906 C 70.695312 85.503906 70.804688 85.460938 70.894531 85.375 C 70.988281 85.285156 71.035156 85.175781 71.035156 85.054688 Z M 70.769531 83.484375 C 70.769531 83.363281 70.726562 83.257812 70.640625 83.171875 C 70.554688 83.085938 70.453125 83.042969 70.328125 83.042969 L 70.054688 83.042969 L 70.054688 83.910156 L 70.328125 83.910156 C 70.453125 83.910156 70.554688 83.871094 70.640625 83.78125 C 70.726562 83.699219 70.769531 83.597656 70.769531 83.484375 Z M 71.875 85.074219 C 71.875 85.398438 71.777344 85.660156 71.578125 85.859375 C 71.375 86.054688 71.09375 86.148438 70.734375 86.148438 L 69.222656 86.148438 L 69.222656 82.386719 L 70.515625 82.386719 C 70.726562 82.386719 70.914062 82.429688 71.070312 82.511719 C 71.222656 82.601562 71.339844 82.714844 71.425781 82.859375 C 71.519531 83 71.566406 83.15625 71.566406 83.332031 C 71.566406 83.527344 71.523438 83.691406 71.4375 83.828125 C 71.359375 83.96875 71.253906 84.070312 71.113281 84.128906 C 71.324219 84.175781 71.5 84.285156 71.644531 84.453125 C 71.800781 84.613281 71.875 84.820312 71.875 85.074219 Z M 71.875 85.074219 " fill-opacity="1" fill-rule="nonzero"/><path fill="#000000" d="M 73.019531 84.636719 L 74.105469 84.636719 C 74.105469 84.636719 74.097656 84.613281 74.09375 84.566406 C 74.085938 84.523438 74.0625 84.472656 74.023438 84.417969 C 73.992188 84.355469 73.9375 84.300781 73.863281 84.257812 C 73.792969 84.210938 73.691406 84.1875 73.5625 84.1875 C 73.4375 84.1875 73.335938 84.210938 73.261719 84.257812 C 73.183594 84.300781 73.128906 84.355469 73.089844 84.417969 C 73.058594 84.472656 73.039062 84.523438 73.03125 84.566406 C 73.023438 84.613281 73.019531 84.636719 73.019531 84.636719 Z M 74.902344 84.878906 C 74.902344 84.902344 74.902344 84.929688 74.902344 84.960938 C 74.902344 84.984375 74.902344 85.007812 74.902344 85.03125 L 73.007812 85.03125 C 73.007812 85.121094 73.027344 85.214844 73.066406 85.308594 C 73.113281 85.398438 73.171875 85.476562 73.25 85.539062 C 73.335938 85.59375 73.425781 85.617188 73.527344 85.617188 C 73.679688 85.617188 73.800781 85.582031 73.886719 85.503906 C 73.96875 85.417969 74.011719 85.328125 74.011719 85.238281 L 74.855469 85.238281 C 74.785156 85.5625 74.628906 85.804688 74.394531 85.964844 C 74.15625 86.125 73.875 86.207031 73.550781 86.207031 C 73.265625 86.207031 73.015625 86.152344 72.800781 86.046875 C 72.59375 85.9375 72.425781 85.792969 72.304688 85.605469 C 72.1875 85.417969 72.132812 85.191406 72.132812 84.9375 C 72.132812 84.683594 72.191406 84.460938 72.316406 84.269531 C 72.4375 84.078125 72.605469 83.925781 72.8125 83.816406 C 73.027344 83.710938 73.273438 83.65625 73.550781 83.65625 C 73.796875 83.65625 74.019531 83.707031 74.222656 83.804688 C 74.429688 83.898438 74.59375 84.035156 74.71875 84.222656 C 74.839844 84.402344 74.902344 84.621094 74.902344 84.878906 Z M 74.902344 84.878906 " fill-opacity="1" fill-rule="nonzero"/><path fill="#000000" d="M 77.683594 84.453125 L 76.878906 84.453125 C 76.859375 84.347656 76.8125 84.273438 76.726562 84.234375 C 76.640625 84.195312 76.558594 84.175781 76.484375 84.175781 C 76.398438 84.175781 76.324219 84.195312 76.253906 84.234375 C 76.183594 84.273438 76.148438 84.324219 76.148438 84.394531 C 76.148438 84.449219 76.1875 84.492188 76.265625 84.523438 C 76.339844 84.554688 76.4375 84.578125 76.554688 84.589844 C 76.675781 84.609375 76.800781 84.632812 76.933594 84.660156 C 77.074219 84.683594 77.199219 84.722656 77.316406 84.777344 C 77.4375 84.832031 77.539062 84.910156 77.617188 85.007812 C 77.691406 85.109375 77.730469 85.246094 77.730469 85.421875 C 77.730469 85.617188 77.675781 85.769531 77.570312 85.882812 C 77.46875 85.992188 77.328125 86.074219 77.144531 86.125 C 76.964844 86.179688 76.761719 86.207031 76.53125 86.207031 C 76.28125 86.207031 76.0625 86.175781 75.871094 86.113281 C 75.679688 86.046875 75.519531 85.941406 75.398438 85.804688 C 75.285156 85.660156 75.222656 85.46875 75.214844 85.238281 L 76.035156 85.238281 C 76.035156 85.363281 76.0625 85.449219 76.117188 85.503906 C 76.175781 85.558594 76.246094 85.59375 76.324219 85.605469 C 76.40625 85.625 76.480469 85.628906 76.542969 85.628906 C 76.636719 85.628906 76.714844 85.617188 76.785156 85.582031 C 76.855469 85.546875 76.890625 85.492188 76.890625 85.421875 C 76.890625 85.339844 76.847656 85.277344 76.773438 85.238281 C 76.703125 85.191406 76.605469 85.15625 76.484375 85.132812 C 76.359375 85.109375 76.230469 85.085938 76.09375 85.0625 C 75.960938 85.042969 75.832031 85.011719 75.710938 84.972656 C 75.597656 84.925781 75.496094 84.863281 75.421875 84.777344 C 75.355469 84.691406 75.320312 84.578125 75.320312 84.429688 C 75.320312 84.175781 75.414062 83.984375 75.609375 83.851562 C 75.796875 83.722656 76.097656 83.65625 76.507812 83.65625 C 76.824219 83.65625 77.085938 83.722656 77.304688 83.851562 C 77.519531 83.976562 77.644531 84.175781 77.683594 84.453125 Z M 77.683594 84.453125 " fill-opacity="1" fill-rule="nonzero"/><path fill="#000000" d="M 79.265625 84.347656 L 79.265625 86.148438 L 78.449219 86.148438 L 78.449219 84.347656 L 78.007812 84.347656 L 78.007812 83.714844 L 78.449219 83.714844 L 78.449219 82.777344 L 79.265625 82.777344 L 79.265625 83.714844 L 79.71875 83.714844 L 79.71875 84.347656 Z M 79.265625 84.347656 " fill-opacity="1" fill-rule="nonzero"/><path fill="#000000" d="M 84.4375 84.269531 C 84.4375 84.070312 84.382812 83.886719 84.277344 83.726562 C 84.175781 83.558594 84.039062 83.421875 83.875 83.320312 C 83.710938 83.214844 83.53125 83.160156 83.332031 83.160156 C 83.144531 83.160156 82.964844 83.214844 82.789062 83.320312 C 82.617188 83.421875 82.480469 83.558594 82.382812 83.726562 C 82.285156 83.886719 82.234375 84.070312 82.234375 84.269531 C 82.234375 84.460938 82.285156 84.644531 82.382812 84.808594 C 82.480469 84.980469 82.617188 85.117188 82.789062 85.226562 C 82.964844 85.328125 83.144531 85.375 83.332031 85.375 C 83.53125 85.375 83.710938 85.328125 83.875 85.226562 C 84.039062 85.117188 84.175781 84.980469 84.277344 84.808594 C 84.382812 84.644531 84.4375 84.460938 84.4375 84.269531 Z M 85.269531 84.269531 C 85.269531 84.53125 85.214844 84.78125 85.109375 85.019531 C 85.007812 85.25 84.867188 85.453125 84.691406 85.628906 C 84.515625 85.808594 84.304688 85.949219 84.070312 86.058594 C 83.839844 86.15625 83.589844 86.207031 83.332031 86.207031 C 83.078125 86.207031 82.828125 86.15625 82.59375 86.058594 C 82.359375 85.949219 82.15625 85.808594 81.980469 85.628906 C 81.800781 85.453125 81.660156 85.25 81.554688 85.019531 C 81.453125 84.78125 81.402344 84.53125 81.402344 84.269531 C 81.402344 84.007812 81.453125 83.761719 81.554688 83.527344 C 81.660156 83.296875 81.800781 83.097656 81.980469 82.917969 C 82.15625 82.734375 82.359375 82.589844 82.59375 82.492188 C 82.828125 82.382812 83.078125 82.328125 83.332031 82.328125 C 83.589844 82.328125 83.839844 82.382812 84.070312 82.492188 C 84.304688 82.589844 84.515625 82.734375 84.691406 82.917969 C 84.867188 83.097656 85.007812 83.296875 85.109375 83.527344 C 85.214844 83.761719 85.269531 84.007812 85.269531 84.269531 Z M 85.269531 84.269531 " fill-opacity="1" fill-rule="nonzero"/><path fill="#000000" d="M 86.769531 82.003906 L 87.382812 82.003906 L 87.382812 82.652344 L 87.023438 82.652344 C 86.9375 82.652344 86.878906 82.679688 86.851562 82.734375 C 86.820312 82.777344 86.804688 82.867188 86.804688 82.988281 L 86.804688 83.714844 L 87.382812 83.714844 L 87.382812 84.347656 L 86.804688 84.347656 L 86.804688 86.148438 L 85.984375 86.148438 L 85.984375 84.347656 L 85.628906 84.347656 L 85.628906 83.714844 L 85.984375 83.714844 L 85.984375 82.882812 C 85.984375 82.582031 86.058594 82.363281 86.207031 82.226562 C 86.359375 82.082031 86.546875 82.003906 86.769531 82.003906 Z M 86.769531 82.003906 " fill-opacity="1" fill-rule="nonzero"/><path fill="#000000" d="M 88.777344 82.003906 L 89.390625 82.003906 L 89.390625 82.652344 L 89.03125 82.652344 C 88.945312 82.652344 88.886719 82.679688 88.859375 82.734375 C 88.828125 82.777344 88.8125 82.867188 88.8125 82.988281 L 88.8125 83.714844 L 89.390625 83.714844 L 89.390625 84.347656 L 88.8125 84.347656 L 88.8125 86.148438 L 87.992188 86.148438 L 87.992188 84.347656 L 87.636719 84.347656 L 87.636719 83.714844 L 87.992188 83.714844 L 87.992188 82.882812 C 87.992188 82.582031 88.066406 82.363281 88.214844 82.226562 C 88.367188 82.082031 88.554688 82.003906 88.777344 82.003906 Z M 88.777344 82.003906 " fill-opacity="1" fill-rule="nonzero"/><path fill="#000000" d="M 90.566406 84.636719 L 91.652344 84.636719 C 91.652344 84.636719 91.648438 84.613281 91.640625 84.566406 C 91.632812 84.523438 91.609375 84.472656 91.570312 84.417969 C 91.539062 84.355469 91.484375 84.300781 91.410156 84.257812 C 91.339844 84.210938 91.238281 84.1875 91.109375 84.1875 C 90.984375 84.1875 90.886719 84.210938 90.808594 84.257812 C 90.730469 84.300781 90.675781 84.355469 90.636719 84.417969 C 90.605469 84.472656 90.585938 84.523438 90.578125 84.566406 C 90.570312 84.613281 90.566406 84.636719 90.566406 84.636719 Z M 92.449219 84.878906 C 92.449219 84.902344 92.449219 84.929688 92.449219 84.960938 C 92.449219 84.984375 92.449219 85.007812 92.449219 85.03125 L 90.554688 85.03125 C 90.554688 85.121094 90.574219 85.214844 90.613281 85.308594 C 90.660156 85.398438 90.722656 85.476562 90.796875 85.539062 C 90.882812 85.59375 90.976562 85.617188 91.074219 85.617188 C 91.230469 85.617188 91.347656 85.582031 91.433594 85.503906 C 91.515625 85.417969 91.558594 85.328125 91.558594 85.238281 L 92.402344 85.238281 C 92.332031 85.5625 92.179688 85.804688 91.941406 85.964844 C 91.703125 86.125 91.421875 86.207031 91.097656 86.207031 C 90.8125 86.207031 90.5625 86.152344 90.347656 86.046875 C 90.140625 85.9375 89.972656 85.792969 89.851562 85.605469 C 89.738281 85.417969 89.679688 85.191406 89.679688 84.9375 C 89.679688 84.683594 89.738281 84.460938 89.863281 84.269531 C 89.984375 84.078125 90.152344 83.925781 90.359375 83.816406 C 90.574219 83.710938 90.820312 83.65625 91.097656 83.65625 C 91.34375 83.65625 91.566406 83.707031 91.769531 83.804688 C 91.976562 83.898438 92.140625 84.035156 92.265625 84.222656 C 92.386719 84.402344 92.449219 84.621094 92.449219 84.878906 Z M 92.449219 84.878906 " fill-opacity="1" fill-rule="nonzero"/><path fill="#000000" d="M 94.355469 84.324219 C 94.253906 84.324219 94.160156 84.355469 94.078125 84.417969 C 93.992188 84.480469 93.929688 84.554688 93.882812 84.648438 C 93.835938 84.742188 93.8125 84.839844 93.8125 84.9375 L 93.8125 86.148438 L 92.980469 86.148438 L 92.980469 83.714844 L 93.8125 83.714844 L 93.8125 84.015625 C 93.875 83.921875 93.957031 83.839844 94.066406 83.773438 C 94.171875 83.695312 94.300781 83.65625 94.449219 83.65625 C 94.484375 83.65625 94.527344 83.660156 94.574219 83.667969 C 94.621094 83.675781 94.660156 83.691406 94.703125 83.714844 L 94.703125 84.464844 L 94.691406 84.464844 C 94.644531 84.414062 94.589844 84.378906 94.527344 84.359375 C 94.472656 84.335938 94.414062 84.324219 94.355469 84.324219 Z M 94.355469 84.324219 " fill-opacity="1" fill-rule="nonzero"/><path fill="#000000" d="M 97.339844 84.453125 L 96.53125 84.453125 C 96.515625 84.347656 96.464844 84.273438 96.382812 84.234375 C 96.296875 84.195312 96.214844 84.175781 96.140625 84.175781 C 96.054688 84.175781 95.976562 84.195312 95.910156 84.234375 C 95.839844 84.273438 95.804688 84.324219 95.804688 84.394531 C 95.804688 84.449219 95.84375 84.492188 95.921875 84.523438 C 95.996094 84.554688 96.09375 84.578125 96.210938 84.589844 C 96.332031 84.609375 96.457031 84.632812 96.589844 84.660156 C 96.730469 84.683594 96.855469 84.722656 96.972656 84.777344 C 97.09375 84.832031 97.191406 84.910156 97.269531 85.007812 C 97.347656 85.109375 97.386719 85.246094 97.386719 85.421875 C 97.386719 85.617188 97.332031 85.769531 97.226562 85.882812 C 97.125 85.992188 96.984375 86.074219 96.796875 86.125 C 96.617188 86.179688 96.417969 86.207031 96.1875 86.207031 C 95.9375 86.207031 95.71875 86.175781 95.527344 86.113281 C 95.335938 86.046875 95.175781 85.941406 95.054688 85.804688 C 94.941406 85.660156 94.875 85.46875 94.871094 85.238281 L 95.691406 85.238281 C 95.691406 85.363281 95.714844 85.449219 95.769531 85.503906 C 95.832031 85.558594 95.902344 85.59375 95.976562 85.605469 C 96.0625 85.625 96.132812 85.628906 96.199219 85.628906 C 96.289062 85.628906 96.371094 85.617188 96.441406 85.582031 C 96.507812 85.546875 96.542969 85.492188 96.542969 85.421875 C 96.542969 85.339844 96.503906 85.277344 96.429688 85.238281 C 96.359375 85.191406 96.261719 85.15625 96.140625 85.132812 C 96.015625 85.109375 95.886719 85.085938 95.746094 85.0625 C 95.613281 85.042969 95.488281 85.011719 95.367188 84.972656 C 95.25 84.925781 95.152344 84.863281 95.078125 84.777344 C 95.007812 84.691406 94.972656 84.578125 94.972656 84.429688 C 94.972656 84.175781 95.070312 83.984375 95.261719 83.851562 C 95.453125 83.722656 95.753906 83.65625 96.164062 83.65625 C 96.476562 83.65625 96.742188 83.722656 96.960938 83.851562 C 97.171875 83.976562 97.300781 84.175781 97.339844 84.453125 Z M 97.339844 84.453125 " fill-opacity="1" fill-rule="nonzero"/><path fill="#000000" d="M 101.171875 84.9375 C 101.171875 84.832031 101.140625 84.730469 101.089844 84.636719 C 101.042969 84.542969 100.972656 84.472656 100.882812 84.417969 C 100.796875 84.355469 100.699219 84.324219 100.59375 84.324219 C 100.476562 84.324219 100.378906 84.355469 100.292969 84.417969 C 100.207031 84.472656 100.136719 84.542969 100.085938 84.636719 C 100.03125 84.730469 100.003906 84.832031 100.003906 84.9375 C 100.003906 85.046875 100.03125 85.144531 100.085938 85.238281 C 100.136719 85.324219 100.207031 85.394531 100.292969 85.457031 C 100.378906 85.511719 100.476562 85.539062 100.59375 85.539062 C 100.699219 85.539062 100.796875 85.511719 100.882812 85.457031 C 100.972656 85.394531 101.042969 85.324219 101.089844 85.238281 C 101.140625 85.144531 101.171875 85.046875 101.171875 84.9375 Z M 102 83.714844 L 102 86.148438 L 101.171875 86.148438 L 101.171875 85.859375 C 101.085938 85.984375 100.964844 86.074219 100.800781 86.125 C 100.644531 86.179688 100.492188 86.207031 100.339844 86.207031 C 100.109375 86.207031 99.902344 86.148438 99.714844 86.035156 C 99.53125 85.914062 99.382812 85.753906 99.277344 85.5625 C 99.175781 85.371094 99.128906 85.164062 99.128906 84.9375 C 99.128906 84.707031 99.175781 84.496094 99.277344 84.300781 C 99.382812 84.113281 99.53125 83.957031 99.714844 83.839844 C 99.902344 83.71875 100.109375 83.65625 100.339844 83.65625 C 100.492188 83.65625 100.644531 83.683594 100.789062 83.738281 C 100.933594 83.78125 101.0625 83.875 101.171875 84.015625 L 101.171875 83.714844 Z M 102 83.714844 " fill-opacity="1" fill-rule="nonzero"/><path fill="#000000" d="M 103.707031 84.347656 L 103.707031 86.148438 L 102.886719 86.148438 L 102.886719 84.347656 L 102.449219 84.347656 L 102.449219 83.714844 L 102.886719 83.714844 L 102.886719 82.777344 L 103.707031 82.777344 L 103.707031 83.714844 L 104.15625 83.714844 L 104.15625 84.347656 Z M 103.707031 84.347656 " fill-opacity="1" fill-rule="nonzero"/><path fill="#000000" d="M 107.078125 86.148438 L 107.078125 84.347656 L 105.695312 82.386719 L 106.6875 82.386719 L 107.492188 83.691406 L 108.300781 82.386719 L 109.292969 82.386719 L 107.910156 84.347656 L 107.910156 86.148438 Z M 107.078125 86.148438 " fill-opacity="1" fill-rule="nonzero"/><path fill="#000000" d="M 110.925781 85.570312 C 111.078125 85.570312 111.191406 85.542969 111.269531 85.480469 C 111.355469 85.417969 111.410156 85.339844 111.445312 85.25 C 111.472656 85.152344 111.488281 85.046875 111.488281 84.9375 C 111.488281 84.839844 111.46875 84.742188 111.433594 84.648438 C 111.398438 84.550781 111.34375 84.46875 111.257812 84.40625 C 111.179688 84.335938 111.066406 84.300781 110.925781 84.300781 C 110.785156 84.300781 110.671875 84.335938 110.589844 84.40625 C 110.503906 84.46875 110.441406 84.550781 110.40625 84.648438 C 110.371094 84.742188 110.359375 84.839844 110.359375 84.9375 C 110.359375 85.046875 110.371094 85.152344 110.40625 85.25 C 110.441406 85.339844 110.5 85.417969 110.578125 85.480469 C 110.660156 85.542969 110.777344 85.570312 110.925781 85.570312 Z M 110.925781 83.65625 C 111.183594 83.65625 111.421875 83.710938 111.628906 83.816406 C 111.835938 83.925781 112 84.078125 112.125 84.269531 C 112.253906 84.460938 112.320312 84.683594 112.320312 84.9375 C 112.320312 85.191406 112.257812 85.417969 112.136719 85.605469 C 112.011719 85.792969 111.839844 85.9375 111.628906 86.046875 C 111.421875 86.144531 111.183594 86.195312 110.925781 86.195312 C 110.671875 86.195312 110.433594 86.144531 110.21875 86.046875 C 110.011719 85.9375 109.84375 85.792969 109.722656 85.605469 C 109.597656 85.417969 109.539062 85.191406 109.539062 84.9375 C 109.539062 84.683594 109.597656 84.460938 109.722656 84.269531 C 109.84375 84.078125 110.011719 83.925781 110.21875 83.816406 C 110.433594 83.710938 110.671875 83.65625 110.925781 83.65625 Z M 110.925781 83.65625 " fill-opacity="1" fill-rule="nonzero"/><path fill="#000000" d="M 112.789062 85.097656 L 112.789062 83.714844 L 113.621094 83.714844 L 113.621094 85.097656 C 113.621094 85.238281 113.648438 85.347656 113.703125 85.421875 C 113.761719 85.5 113.855469 85.539062 113.988281 85.539062 C 114.121094 85.539062 114.226562 85.480469 114.3125 85.363281 C 114.40625 85.242188 114.453125 85.097656 114.453125 84.9375 L 114.453125 83.714844 L 115.28125 83.714844 L 115.28125 86.148438 L 114.453125 86.148438 L 114.453125 85.847656 C 114.375 85.957031 114.269531 86.046875 114.140625 86.113281 C 114.015625 86.175781 113.867188 86.207031 113.703125 86.207031 C 113.378906 86.207031 113.140625 86.109375 112.996094 85.90625 C 112.859375 85.699219 112.789062 85.429688 112.789062 85.097656 Z M 112.789062 85.097656 " fill-opacity="1" fill-rule="nonzero"/><path fill="#000000" d="M 117.324219 84.324219 C 117.222656 84.324219 117.128906 84.355469 117.046875 84.417969 C 116.960938 84.480469 116.898438 84.554688 116.851562 84.648438 C 116.804688 84.742188 116.78125 84.839844 116.78125 84.9375 L 116.78125 86.148438 L 115.949219 86.148438 L 115.949219 83.714844 L 116.78125 83.714844 L 116.78125 84.015625 C 116.84375 83.921875 116.925781 83.839844 117.035156 83.773438 C 117.140625 83.695312 117.269531 83.65625 117.417969 83.65625 C 117.453125 83.65625 117.496094 83.660156 117.542969 83.667969 C 117.589844 83.675781 117.628906 83.691406 117.671875 83.714844 L 117.671875 84.464844 L 117.660156 84.464844 C 117.613281 84.414062 117.558594 84.378906 117.496094 84.359375 C 117.441406 84.335938 117.386719 84.324219 117.324219 84.324219 Z M 117.324219 84.324219 " fill-opacity="1" fill-rule="nonzero"/><path fill="#000000" d="M 121.566406 84.636719 L 120.273438 84.636719 L 120.273438 86.148438 L 119.441406 86.148438 L 119.441406 82.386719 L 121.609375 82.386719 L 121.609375 83.136719 L 120.273438 83.136719 L 120.273438 83.886719 L 121.566406 83.886719 Z M 121.566406 84.636719 " fill-opacity="1" fill-rule="nonzero"/><path fill="#000000" d="M 122.183594 82.871094 C 122.183594 82.742188 122.230469 82.628906 122.320312 82.535156 C 122.414062 82.4375 122.53125 82.386719 122.667969 82.386719 C 122.796875 82.386719 122.910156 82.4375 123.003906 82.535156 C 123.101562 82.628906 123.152344 82.742188 123.152344 82.871094 C 123.152344 83.007812 123.101562 83.132812 123.003906 83.230469 C 122.910156 83.320312 122.796875 83.367188 122.667969 83.367188 C 122.53125 83.367188 122.414062 83.320312 122.320312 83.230469 C 122.230469 83.132812 122.183594 83.007812 122.183594 82.871094 Z M 123.082031 86.148438 L 122.253906 86.148438 L 122.253906 83.714844 L 123.082031 83.714844 Z M 123.082031 86.148438 " fill-opacity="1" fill-rule="nonzero"/><path fill="#000000" d="M 126.273438 84.765625 L 126.273438 86.148438 L 125.441406 86.148438 L 125.441406 84.765625 C 125.441406 84.625 125.410156 84.519531 125.347656 84.441406 C 125.292969 84.367188 125.199219 84.324219 125.070312 84.324219 C 124.9375 84.324219 124.828125 84.390625 124.738281 84.511719 C 124.648438 84.625 124.609375 84.769531 124.609375 84.9375 L 124.609375 86.148438 L 123.777344 86.148438 L 123.777344 83.714844 L 124.609375 83.714844 L 124.609375 84.015625 C 124.691406 83.90625 124.796875 83.824219 124.921875 83.761719 C 125.050781 83.691406 125.191406 83.65625 125.347656 83.65625 C 125.675781 83.65625 125.914062 83.761719 126.050781 83.96875 C 126.195312 84.167969 126.273438 84.433594 126.273438 84.765625 Z M 126.273438 84.765625 " fill-opacity="1" fill-rule="nonzero"/><g clip-path="url(#25a26abb35)"><path fill="#000000" d="M 128.179688 85.539062 C 128.289062 85.539062 128.382812 85.511719 128.46875 85.457031 C 128.5625 85.394531 128.632812 85.316406 128.679688 85.226562 C 128.730469 85.132812 128.757812 85.035156 128.757812 84.925781 C 128.757812 84.820312 128.730469 84.71875 128.679688 84.625 C 128.632812 84.535156 128.5625 84.460938 128.46875 84.40625 C 128.382812 84.347656 128.289062 84.3125 128.179688 84.3125 C 128.066406 84.3125 127.964844 84.347656 127.882812 84.40625 C 127.792969 84.460938 127.726562 84.535156 127.671875 84.625 C 127.617188 84.71875 127.59375 84.820312 127.59375 84.925781 C 127.59375 85.035156 127.617188 85.132812 127.671875 85.226562 C 127.726562 85.316406 127.792969 85.394531 127.882812 85.457031 C 127.964844 85.511719 128.066406 85.539062 128.179688 85.539062 Z M 128.757812 84.015625 L 128.757812 83.714844 L 129.589844 83.714844 L 129.589844 86.148438 C 129.589844 86.410156 129.523438 86.644531 129.394531 86.851562 C 129.269531 87.066406 129.097656 87.234375 128.886719 87.351562 C 128.667969 87.472656 128.433594 87.535156 128.179688 87.535156 C 128.011719 87.535156 127.847656 87.511719 127.683594 87.464844 C 127.523438 87.425781 127.375 87.359375 127.234375 87.269531 C 127.097656 87.183594 126.984375 87.074219 126.898438 86.933594 C 126.8125 86.800781 126.765625 86.644531 126.75 86.460938 L 127.582031 86.460938 C 127.609375 86.605469 127.675781 86.71875 127.777344 86.796875 C 127.882812 86.878906 128.003906 86.921875 128.136719 86.921875 C 128.257812 86.921875 128.367188 86.886719 128.457031 86.820312 C 128.550781 86.753906 128.625 86.671875 128.679688 86.566406 C 128.730469 86.464844 128.757812 86.355469 128.757812 86.242188 L 128.757812 85.847656 C 128.671875 85.972656 128.550781 86.066406 128.390625 86.125 C 128.234375 86.179688 128.082031 86.207031 127.925781 86.207031 C 127.695312 86.207031 127.488281 86.148438 127.304688 86.035156 C 127.121094 85.914062 126.972656 85.753906 126.867188 85.5625 C 126.765625 85.363281 126.714844 85.152344 126.714844 84.925781 C 126.714844 84.703125 126.765625 84.496094 126.867188 84.300781 C 126.972656 84.113281 127.121094 83.957031 127.304688 83.839844 C 127.488281 83.71875 127.695312 83.65625 127.925781 83.65625 C 128.082031 83.65625 128.226562 83.679688 128.367188 83.726562 C 128.511719 83.773438 128.644531 83.871094 128.757812 84.015625 Z M 128.757812 84.015625 " fill-opacity="1" fill-rule="nonzero"/></g><path fill="#000000" d="M 131.007812 84.636719 L 132.089844 84.636719 C 132.089844 84.636719 132.085938 84.613281 132.078125 84.566406 C 132.070312 84.523438 132.046875 84.472656 132.011719 84.417969 C 131.980469 84.355469 131.925781 84.300781 131.847656 84.257812 C 131.78125 84.210938 131.679688 84.1875 131.550781 84.1875 C 131.425781 84.1875 131.324219 84.210938 131.25 84.257812 C 131.171875 84.300781 131.113281 84.355469 131.074219 84.417969 C 131.042969 84.472656 131.023438 84.523438 131.019531 84.566406 C 131.007812 84.613281 131.007812 84.636719 131.007812 84.636719 Z M 132.886719 84.878906 C 132.886719 84.902344 132.886719 84.929688 132.886719 84.960938 C 132.886719 84.984375 132.886719 85.007812 132.886719 85.03125 L 130.996094 85.03125 C 130.996094 85.121094 131.011719 85.214844 131.054688 85.308594 C 131.097656 85.398438 131.160156 85.476562 131.238281 85.539062 C 131.320312 85.59375 131.414062 85.617188 131.515625 85.617188 C 131.667969 85.617188 131.785156 85.582031 131.871094 85.503906 C 131.957031 85.417969 132 85.328125 132 85.238281 L 132.84375 85.238281 C 132.773438 85.5625 132.617188 85.804688 132.378906 85.964844 C 132.140625 86.125 131.859375 86.207031 131.539062 86.207031 C 131.25 86.207031 131 86.152344 130.789062 86.046875 C 130.578125 85.9375 130.414062 85.792969 130.289062 85.605469 C 130.175781 85.417969 130.117188 85.191406 130.117188 84.9375 C 130.117188 84.683594 130.179688 84.460938 130.300781 84.269531 C 130.421875 84.078125 130.589844 83.925781 130.800781 83.816406 C 131.011719 83.710938 131.261719 83.65625 131.539062 83.65625 C 131.78125 83.65625 132.003906 83.707031 132.207031 83.804688 C 132.414062 83.898438 132.578125 84.035156 132.703125 84.222656 C 132.824219 84.402344 132.886719 84.621094 132.886719 84.878906 Z M 132.886719 84.878906 " fill-opacity="1" fill-rule="nonzero"/><path fill="#000000" d="M 134.792969 84.324219 C 134.691406 84.324219 134.601562 84.355469 134.515625 84.417969 C 134.429688 84.480469 134.367188 84.554688 134.320312 84.648438 C 134.273438 84.742188 134.25 84.839844 134.25 84.9375 L 134.25 86.148438 L 133.421875 86.148438 L 133.421875 83.714844 L 134.25 83.714844 L 134.25 84.015625 C 134.3125 83.921875 134.394531 83.839844 134.503906 83.773438 C 134.613281 83.695312 134.738281 83.65625 134.886719 83.65625 C 134.925781 83.65625 134.96875 83.660156 135.011719 83.667969 C 135.058594 83.675781 135.101562 83.691406 135.140625 83.714844 L 135.140625 84.464844 L 135.128906 84.464844 C 135.082031 84.414062 135.027344 84.378906 134.96875 84.359375 C 134.914062 84.335938 134.855469 84.324219 134.792969 84.324219 Z M 134.792969 84.324219 " fill-opacity="1" fill-rule="nonzero"/><path fill="#000000" d="M 136.566406 84.347656 L 136.566406 86.148438 L 135.746094 86.148438 L 135.746094 84.347656 L 135.308594 84.347656 L 135.308594 83.714844 L 135.746094 83.714844 L 135.746094 82.777344 L 136.566406 82.777344 L 136.566406 83.714844 L 137.015625 83.714844 L 137.015625 84.347656 Z M 136.566406 84.347656 " fill-opacity="1" fill-rule="nonzero"/><path fill="#000000" d="M 137.414062 82.871094 C 137.414062 82.742188 137.457031 82.628906 137.550781 82.535156 C 137.644531 82.4375 137.757812 82.386719 137.898438 82.386719 C 138.027344 82.386719 138.140625 82.4375 138.230469 82.535156 C 138.332031 82.628906 138.382812 82.742188 138.382812 82.871094 C 138.382812 83.007812 138.332031 83.132812 138.230469 83.230469 C 138.140625 83.320312 138.027344 83.367188 137.898438 83.367188 C 137.757812 83.367188 137.644531 83.320312 137.550781 83.230469 C 137.457031 83.132812 137.414062 83.007812 137.414062 82.871094 Z M 138.3125 86.148438 L 137.480469 86.148438 L 137.480469 83.714844 L 138.3125 83.714844 Z M 138.3125 86.148438 " fill-opacity="1" fill-rule="nonzero"/><g clip-path="url(#0a5ea2e42a)"><path fill="#000000" d="M 139.839844 84.9375 C 139.839844 85.046875 139.863281 85.144531 139.910156 85.238281 C 139.960938 85.324219 140.03125 85.394531 140.117188 85.457031 C 140.207031 85.511719 140.304688 85.539062 140.417969 85.539062 C 140.523438 85.539062 140.617188 85.511719 140.703125 85.457031 C 140.796875 85.394531 140.867188 85.324219 140.914062 85.238281 C 140.964844 85.144531 140.992188 85.046875 140.992188 84.9375 C 140.992188 84.832031 140.964844 84.730469 140.914062 84.636719 C 140.867188 84.542969 140.796875 84.472656 140.703125 84.417969 C 140.617188 84.355469 140.523438 84.324219 140.417969 84.324219 C 140.304688 84.324219 140.207031 84.355469 140.117188 84.417969 C 140.03125 84.472656 139.960938 84.542969 139.910156 84.636719 C 139.863281 84.730469 139.839844 84.832031 139.839844 84.9375 Z M 139.839844 87.535156 L 139.007812 87.535156 L 139.007812 83.714844 L 139.839844 83.714844 L 139.839844 84.015625 C 139.9375 83.875 140.0625 83.78125 140.207031 83.738281 C 140.351562 83.683594 140.507812 83.65625 140.671875 83.65625 C 140.902344 83.65625 141.109375 83.71875 141.292969 83.839844 C 141.476562 83.957031 141.621094 84.113281 141.71875 84.300781 C 141.828125 84.496094 141.882812 84.707031 141.882812 84.9375 C 141.882812 85.164062 141.828125 85.371094 141.71875 85.5625 C 141.621094 85.753906 141.476562 85.914062 141.292969 86.035156 C 141.109375 86.148438 140.902344 86.207031 140.671875 86.207031 C 140.507812 86.207031 140.351562 86.179688 140.195312 86.125 C 140.039062 86.074219 139.921875 85.984375 139.839844 85.859375 Z M 139.839844 87.535156 " fill-opacity="1" fill-rule="nonzero"/></g><path fill="#000000" d="M 144.660156 84.453125 L 143.851562 84.453125 C 143.835938 84.347656 143.785156 84.273438 143.703125 84.234375 C 143.617188 84.195312 143.535156 84.175781 143.460938 84.175781 C 143.375 84.175781 143.300781 84.195312 143.230469 84.234375 C 143.160156 84.273438 143.125 84.324219 143.125 84.394531 C 143.125 84.449219 143.164062 84.492188 143.242188 84.523438 C 143.316406 84.554688 143.414062 84.578125 143.53125 84.589844 C 143.652344 84.609375 143.777344 84.632812 143.910156 84.660156 C 144.050781 84.683594 144.175781 84.722656 144.292969 84.777344 C 144.414062 84.832031 144.515625 84.910156 144.589844 85.007812 C 144.667969 85.109375 144.707031 85.246094 144.707031 85.421875 C 144.707031 85.617188 144.652344 85.769531 144.546875 85.882812 C 144.445312 85.992188 144.304688 86.074219 144.117188 86.125 C 143.941406 86.179688 143.738281 86.207031 143.507812 86.207031 C 143.257812 86.207031 143.039062 86.175781 142.847656 86.113281 C 142.65625 86.046875 142.496094 85.941406 142.375 85.804688 C 142.261719 85.660156 142.195312 85.46875 142.191406 85.238281 L 143.011719 85.238281 C 143.011719 85.363281 143.035156 85.449219 143.089844 85.503906 C 143.152344 85.558594 143.222656 85.59375 143.300781 85.605469 C 143.382812 85.625 143.453125 85.628906 143.519531 85.628906 C 143.609375 85.628906 143.691406 85.617188 143.761719 85.582031 C 143.828125 85.546875 143.863281 85.492188 143.863281 85.421875 C 143.863281 85.339844 143.824219 85.277344 143.75 85.238281 C 143.679688 85.191406 143.582031 85.15625 143.460938 85.132812 C 143.335938 85.109375 143.207031 85.085938 143.066406 85.0625 C 142.933594 85.042969 142.808594 85.011719 142.6875 84.972656 C 142.570312 84.925781 142.472656 84.863281 142.398438 84.777344 C 142.328125 84.691406 142.292969 84.578125 142.292969 84.429688 C 142.292969 84.175781 142.390625 83.984375 142.582031 83.851562 C 142.773438 83.722656 143.074219 83.65625 143.484375 83.65625 C 143.796875 83.65625 144.0625 83.722656 144.28125 83.851562 C 144.492188 83.976562 144.621094 84.175781 144.660156 84.453125 Z M 144.660156 84.453125 " fill-opacity="1" fill-rule="nonzero"/></svg>