<svg xmlns="http://www.w3.org/2000/svg" xmlns:xlink="http://www.w3.org/1999/xlink" width="500" zoomAndPan="magnify" viewBox="0 0 375 374.999991" height="500" preserveAspectRatio="xMidYMid meet" version="1.0"><defs><g/><clipPath id="6a62e34a29"><path d="M 57.359375 56.988281 L 219.359375 56.988281 L 219.359375 317.988281 L 57.359375 317.988281 Z M 57.359375 56.988281 " clip-rule="nonzero"/></clipPath><clipPath id="14b3297330"><path d="M 143 61 L 162.195312 61 L 162.195312 63 L 143 63 Z M 143 61 " clip-rule="nonzero"/></clipPath><clipPath id="10e29006e2"><path d="M 0.359375 49 L 65 49 L 65 261.988281 L 0.359375 261.988281 Z M 0.359375 49 " clip-rule="nonzero"/></clipPath><clipPath id="66513ae3dc"><rect x="0" width="163" y="0" height="262"/></clipPath><clipPath id="6ba1fb9593"><rect x="0" width="156" y="0" height="86"/></clipPath><clipPath id="6556793744"><path d="M 97 213.820312 L 159 213.820312 L 159 309.800781 L 97 309.800781 Z M 97 213.820312 " clip-rule="nonzero"/></clipPath><clipPath id="3fb3bc5f8b"><path d="M 0.238281 8 L 37 8 L 37 70 L 0.238281 70 Z M 0.238281 8 " clip-rule="nonzero"/></clipPath><clipPath id="778a078b84"><rect x="0" width="187" y="0" height="85"/></clipPath><clipPath id="1b4013fb3d"><path d="M 0.679688 3 L 7 3 L 7 10 L 0.679688 10 Z M 0.679688 3 " clip-rule="nonzero"/></clipPath><clipPath id="3773f4429b"><path d="M 136 5 L 142 5 L 142 12.480469 L 136 12.480469 Z M 136 5 " clip-rule="nonzero"/></clipPath><clipPath id="587b2f6450"><path d="M 158 5 L 164 5 L 164 12.480469 L 158 12.480469 Z M 158 5 " clip-rule="nonzero"/></clipPath><clipPath id="c894a37abb"><rect x="0" width="170" y="0" height="13"/></clipPath></defs><rect x="-37.5" width="450" fill="#ffffff" y="-37.499999" height="449.999989" fill-opacity="1"/><rect x="-37.5" width="450" fill="#000000" y="-37.499999" height="449.999989" fill-opacity="1"/><g clip-path="url(#6a62e34a29)"><g transform="matrix(1, 0, 0, 1, 57, 56)"><g clip-path="url(#66513ae3dc)"><g clip-path="url(#14b3297330)"><path fill="#ffffff" d="M 143.816406 61.042969 L 162.195312 62.722656 L 143.816406 62.59375 Z M 143.816406 61.042969 " fill-opacity="1" fill-rule="nonzero"/></g><path fill="#ffffff" d="M 134.414062 60.265625 L 134.414062 62.617188 L 74.558594 62.25 L 74.601562 54.785156 Z M 134.414062 60.265625 " fill-opacity="1" fill-rule="nonzero"/><path fill="#ffffff" d="M 67.632812 73.660156 C 67.65625 64.730469 67.761719 34.683594 67.632812 31.382812 C 67.546875 29.226562 68.820312 19.5 76.519531 11.496094 C 83.164062 4.59375 92.480469 1.101562 104.214844 1.101562 C 139.394531 1.101562 141.078125 33.347656 141.078125 33.734375 L 141.078125 73.636719 C 142.136719 74.328125 142.847656 75.535156 142.847656 76.894531 C 142.847656 79.050781 141.097656 80.800781 138.941406 80.800781 C 136.785156 80.800781 135.039062 79.050781 135.039062 76.894531 C 135.039062 75.320312 135.964844 73.984375 137.324219 73.359375 L 137.324219 33.800781 C 137.28125 32.613281 135.816406 4.832031 104.195312 4.832031 C 93.515625 4.832031 85.105469 7.9375 79.195312 14.085938 C 72.960938 20.554688 71.277344 28.925781 71.367188 31.234375 C 71.496094 34.597656 71.410156 64.019531 71.386719 73.359375 C 72.722656 73.984375 73.671875 75.320312 73.671875 76.894531 C 73.671875 79.050781 71.925781 80.800781 69.769531 80.800781 C 67.613281 80.800781 65.863281 79.050781 65.863281 76.894531 C 65.863281 75.535156 66.578125 74.351562 67.632812 73.660156 Z M 67.632812 73.660156 " fill-opacity="1" fill-rule="nonzero"/><g clip-path="url(#10e29006e2)"><path fill="#ffffff" d="M 16.878906 54.875 L 19.40625 49.824219 L 20.441406 49.910156 L 41.730469 51.851562 L 64.550781 53.945312 L 64.484375 62.183594 L 35.105469 62.011719 C -15.863281 147.6875 40.738281 259.480469 41.964844 261.898438 C -17.695312 177.710938 -0.699219 83.667969 16.878906 54.875 Z M 16.878906 54.875 " fill-opacity="1" fill-rule="nonzero"/></g></g></g></g><g transform="matrix(1, 0, 0, 1, 163, 216)"><g clip-path="url(#6ba1fb9593)"><g fill="#ffffff" fill-opacity="1"><g transform="translate(0.854442, 71.385754)"><g><path d="M 25.0625 -58.6875 C 24.1875 -59.125 23.394531 -59.460938 22.6875 -59.703125 C 21.976562 -59.953125 21.21875 -60.078125 20.40625 -60.078125 C 18.613281 -60.023438 17.414062 -59.316406 16.8125 -57.953125 C 16.21875 -56.585938 15.921875 -55.007812 15.921875 -53.21875 L 15.921875 -40.078125 L 25.0625 -40.078125 L 25.0625 -30.453125 L 15.921875 -30.453125 L 15.921875 0 L 4.484375 0 L 4.484375 -30.453125 L 0.65625 -30.453125 L 0.65625 -40.078125 L 4.484375 -40.078125 L 4.484375 -52 C 4.484375 -57.707031 5.800781 -62.164062 8.4375 -65.375 C 11.082031 -68.59375 14.800781 -70.203125 19.59375 -70.203125 C 21.65625 -70.203125 23.476562 -69.765625 25.0625 -68.890625 Z M 25.0625 -58.6875 "/></g></g></g><g fill="#ffffff" fill-opacity="1"><g transform="translate(25.585318, 71.385754)"><g><path d="M 25.0625 -58.6875 C 24.1875 -59.125 23.394531 -59.460938 22.6875 -59.703125 C 21.976562 -59.953125 21.21875 -60.078125 20.40625 -60.078125 C 18.613281 -60.023438 17.414062 -59.316406 16.8125 -57.953125 C 16.21875 -56.585938 15.921875 -55.007812 15.921875 -53.21875 L 15.921875 -40.078125 L 25.0625 -40.078125 L 25.0625 -30.453125 L 15.921875 -30.453125 L 15.921875 0 L 4.484375 0 L 4.484375 -30.453125 L 0.65625 -30.453125 L 0.65625 -40.078125 L 4.484375 -40.078125 L 4.484375 -52 C 4.484375 -57.707031 5.800781 -62.164062 8.4375 -65.375 C 11.082031 -68.59375 14.800781 -70.203125 19.59375 -70.203125 C 21.65625 -70.203125 23.476562 -69.765625 25.0625 -68.890625 Z M 25.0625 -58.6875 "/></g></g></g><g fill="#ffffff" fill-opacity="1"><g transform="translate(50.316195, 71.385754)"><g><path d="M 13.3125 -18.203125 C 13.3125 -14.878906 14.015625 -12.25 15.421875 -10.3125 C 16.835938 -8.382812 18.769531 -7.421875 21.21875 -7.421875 C 23.125 -7.421875 24.6875 -7.9375 25.90625 -8.96875 C 27.132812 -10.007812 28.128906 -11.316406 28.890625 -12.890625 L 39.421875 -11.1875 C 38.003906 -7.101562 35.675781 -4 32.4375 -1.875 C 29.207031 0.25 25.46875 1.3125 21.21875 1.3125 C 15.289062 1.3125 10.472656 -0.617188 6.765625 -4.484375 C 3.066406 -8.347656 1.21875 -13.410156 1.21875 -19.671875 C 1.21875 -26.253906 2.957031 -31.519531 6.4375 -35.46875 C 9.925781 -39.414062 14.664062 -41.390625 20.65625 -41.390625 C 26.632812 -41.390625 31.296875 -39.457031 34.640625 -35.59375 C 37.992188 -31.726562 39.671875 -26.257812 39.671875 -19.1875 L 39.671875 -18.203125 Z M 28.890625 -25.296875 C 28.515625 -27.804688 27.617188 -29.78125 26.203125 -31.21875 C 24.785156 -32.664062 23.125 -33.390625 21.21875 -33.390625 C 19.425781 -33.390625 17.820312 -32.734375 16.40625 -31.421875 C 14.988281 -30.117188 14.0625 -28.078125 13.625 -25.296875 Z M 28.890625 -25.296875 "/></g></g></g><g fill="#ffffff" fill-opacity="1"><g transform="translate(91.207826, 71.385754)"><g><path d="M 28.984375 -29.796875 C 27.566406 -30.773438 25.988281 -31.265625 24.25 -31.265625 C 21.300781 -31.265625 19.109375 -30.269531 17.671875 -28.28125 C 16.234375 -26.289062 15.515625 -23.015625 15.515625 -18.453125 L 15.515625 0 L 4.078125 0 L 4.078125 -40.078125 L 15.515625 -40.078125 L 15.515625 -35.921875 L 15.671875 -35.921875 C 16.816406 -37.660156 18.234375 -39.003906 19.921875 -39.953125 C 21.609375 -40.910156 23.507812 -41.390625 25.625 -41.390625 C 27.207031 -41.328125 28.785156 -41 30.359375 -40.40625 Z M 28.984375 -29.796875 "/></g></g></g><g fill="#ffffff" fill-opacity="1"><g transform="translate(121.162384, 71.385754)"><g><path d="M 24.65625 -30.609375 C 23.832031 -31.367188 22.90625 -32.019531 21.875 -32.5625 C 20.84375 -33.113281 19.753906 -33.390625 18.609375 -33.390625 C 17.679688 -33.390625 16.820312 -33.0625 16.03125 -32.40625 C 15.25 -31.75 14.859375 -30.929688 14.859375 -29.953125 C 14.859375 -28.921875 15.304688 -28.101562 16.203125 -27.5 C 17.097656 -26.90625 18.5 -26.226562 20.40625 -25.46875 L 23.09375 -24.40625 C 25.601562 -23.425781 27.601562 -22.023438 29.09375 -20.203125 C 30.59375 -18.378906 31.34375 -15.941406 31.34375 -12.890625 C 31.34375 -8.753906 29.882812 -5.351562 26.96875 -2.6875 C 24.0625 -0.0195312 20.320312 1.3125 15.75 1.3125 C 12.976562 1.3125 10.367188 0.726562 7.921875 -0.4375 C 5.472656 -1.613281 3.375 -3.265625 1.625 -5.390625 L 6.859375 -12.15625 C 8.003906 -10.90625 9.28125 -9.816406 10.6875 -8.890625 C 12.101562 -7.972656 13.65625 -7.515625 15.34375 -7.515625 C 16.59375 -7.515625 17.664062 -7.90625 18.5625 -8.6875 C 19.46875 -9.476562 19.921875 -10.523438 19.921875 -11.828125 C 19.921875 -13.085938 19.441406 -14.066406 18.484375 -14.765625 C 17.535156 -15.472656 16.109375 -16.210938 14.203125 -16.984375 C 10.722656 -18.285156 8.394531 -19.46875 7.21875 -20.53125 C 6.050781 -21.59375 5.207031 -22.757812 4.6875 -24.03125 C 4.175781 -25.3125 3.921875 -26.769531 3.921875 -28.40625 C 3.921875 -32.15625 5.128906 -35.253906 7.546875 -37.703125 C 9.972656 -40.160156 13.007812 -41.390625 16.65625 -41.390625 C 18.988281 -41.328125 21.328125 -40.957031 23.671875 -40.28125 C 26.015625 -39.601562 27.972656 -38.582031 29.546875 -37.21875 Z M 24.65625 -30.609375 "/></g></g></g></g></g><g clip-path="url(#6556793744)"><path fill="#f7a800" d="M 128.636719 213.8125 C 128.359375 213.808594 128.070312 213.804688 127.785156 213.804688 C 127.5 213.804688 127.214844 213.808594 126.933594 213.8125 C 104.386719 214.386719 90.457031 238.742188 100.9375 258.714844 L 108.996094 274.078125 L 127.785156 309.894531 L 134.394531 297.292969 C 131.691406 292.273438 128.984375 287.253906 126.277344 282.234375 C 122.144531 274.5625 118.011719 266.894531 113.878906 259.230469 C 111.78125 255.335938 109.78125 251.367188 109.230469 246.914062 C 107.910156 236.171875 117.070312 226.609375 127.710938 226.570312 C 138.144531 226.527344 146.613281 234.972656 146.613281 245.394531 C 146.613281 255.792969 138.179688 264.21875 127.785156 264.21875 C 127.441406 264.21875 127.101562 264.210938 126.761719 264.191406 L 139.292969 287.964844 L 146.578125 274.078125 L 154.632812 258.714844 C 165.113281 238.742188 151.183594 214.386719 128.636719 213.8125 " fill-opacity="1" fill-rule="nonzero"/></g><g transform="matrix(1, 0, 0, 1, 90, 135)"><g clip-path="url(#778a078b84)"><g clip-path="url(#3fb3bc5f8b)"><g fill="#ffffff" fill-opacity="1"><g transform="translate(0.413736, 69.646966)"><g><path d="M 36.484375 -60.984375 L 36.484375 -50.640625 L 24.1875 -50.640625 L 24.1875 0 L 12.296875 0 L 12.296875 -50.640625 L 0 -50.640625 L 0 -60.984375 Z M 36.484375 -60.984375 "/></g></g></g></g><g fill="#ffffff" fill-opacity="1"><g transform="translate(36.895402, 69.646966)"><g><path d="M 15.375 -68.59375 L 15.375 -36.40625 L 15.53125 -36.40625 C 16.769531 -38.019531 18.289062 -39.191406 20.09375 -39.921875 C 21.90625 -40.648438 23.835938 -41.015625 25.890625 -41.015625 C 30.472656 -41.015625 33.910156 -39.625 36.203125 -36.84375 C 38.492188 -34.070312 39.640625 -29.988281 39.640625 -24.59375 L 39.640625 0 L 28.3125 0 L 28.3125 -23.21875 C 28.3125 -25.375 28.082031 -27.054688 27.625 -28.265625 C 27.164062 -29.484375 26.53125 -30.398438 25.71875 -31.015625 C 24.914062 -31.640625 23.703125 -31.953125 22.078125 -31.953125 C 19.765625 -31.953125 18.066406 -31.019531 16.984375 -29.15625 C 15.910156 -27.300781 15.375 -24.429688 15.375 -20.546875 L 15.375 0 L 4.046875 0 L 4.046875 -68.59375 Z M 15.375 -68.59375 "/></g></g></g><g fill="#ffffff" fill-opacity="1"><g transform="translate(80.576345, 69.646966)"><g><path d="M 13.1875 -18.03125 C 13.1875 -14.75 13.882812 -12.148438 15.28125 -10.234375 C 16.6875 -8.316406 18.601562 -7.359375 21.03125 -7.359375 C 22.914062 -7.359375 24.460938 -7.867188 25.671875 -8.890625 C 26.890625 -9.921875 27.878906 -11.21875 28.640625 -12.78125 L 39.0625 -11.078125 C 37.664062 -7.035156 35.363281 -3.960938 32.15625 -1.859375 C 28.945312 0.242188 25.238281 1.296875 21.03125 1.296875 C 15.15625 1.296875 10.382812 -0.613281 6.71875 -4.4375 C 3.050781 -8.269531 1.21875 -13.289062 1.21875 -19.5 C 1.21875 -26.019531 2.941406 -31.234375 6.390625 -35.140625 C 9.835938 -39.054688 14.53125 -41.015625 20.46875 -41.015625 C 26.394531 -41.015625 31.015625 -39.097656 34.328125 -35.265625 C 37.648438 -31.441406 39.3125 -26.023438 39.3125 -19.015625 L 39.3125 -18.03125 Z M 28.640625 -25.078125 C 28.253906 -27.554688 27.359375 -29.507812 25.953125 -30.9375 C 24.554688 -32.363281 22.914062 -33.078125 21.03125 -33.078125 C 19.25 -33.078125 17.65625 -32.429688 16.25 -31.140625 C 14.851562 -29.847656 13.941406 -27.828125 13.515625 -25.078125 Z M 28.640625 -25.078125 "/></g></g></g><g fill="#ffffff" fill-opacity="1"><g transform="translate(121.102546, 69.646966)"><g><path d="M 39.640625 0 L 28.3125 0 L 28.3125 -22.96875 C 28.3125 -25.882812 27.878906 -28.109375 27.015625 -29.640625 C 26.148438 -31.179688 24.53125 -31.953125 22.15625 -31.953125 C 20 -31.953125 18.328125 -31.101562 17.140625 -29.40625 C 15.960938 -27.707031 15.375 -24.753906 15.375 -20.546875 L 15.375 0 L 4.046875 0 L 4.046875 -39.71875 L 15.375 -39.71875 L 15.375 -36.078125 L 15.53125 -36.078125 C 16.71875 -37.859375 18.226562 -39.125 20.0625 -39.875 C 21.894531 -40.632812 23.835938 -41.015625 25.890625 -41.015625 C 30.472656 -41.015625 33.910156 -39.625 36.203125 -36.84375 C 38.492188 -34.070312 39.640625 -29.988281 39.640625 -24.59375 Z M 39.640625 0 "/></g></g></g><g fill="#ffffff" fill-opacity="1"><g transform="translate(164.78349, 69.646966)"><g><path d="M 3.5625 -56.375 C 3.5625 -58.15625 4.207031 -59.71875 5.5 -61.0625 C 6.789062 -62.414062 8.378906 -63.09375 10.265625 -63.09375 C 12.160156 -63.09375 13.753906 -62.414062 15.046875 -61.0625 C 16.335938 -59.71875 16.984375 -58.15625 16.984375 -56.375 C 16.984375 -54.488281 16.335938 -52.898438 15.046875 -51.609375 C 13.753906 -50.316406 12.160156 -49.671875 10.265625 -49.671875 C 8.378906 -49.671875 6.789062 -50.316406 5.5 -51.609375 C 4.207031 -52.898438 3.5625 -54.488281 3.5625 -56.375 Z M 15.9375 -39.71875 L 15.9375 0 L 4.609375 0 L 4.609375 -39.71875 Z M 15.9375 -39.71875 "/></g></g></g></g></g><g transform="matrix(1, 0, 0, 1, 145, 294)"><g clip-path="url(#c894a37abb)"><g clip-path="url(#1b4013fb3d)"><g fill="#ffffff" fill-opacity="1"><g transform="translate(0.764853, 9.855828)"><g><path d="M 3.390625 -5.296875 L 3.390625 0 L 1.9375 0 L 1.9375 -5.296875 L 0.046875 -5.296875 L 0.046875 -6.625 L 5.28125 -6.625 L 5.28125 -5.296875 Z M 3.390625 -5.296875 "/></g></g></g></g><g fill="#ffffff" fill-opacity="1"><g transform="translate(6.09842, 9.855828)"><g><path d="M 4.96875 -2.4375 L 4.96875 0 L 3.515625 0 L 3.515625 -2.4375 C 3.515625 -2.6875 3.460938 -2.878906 3.359375 -3.015625 C 3.253906 -3.148438 3.085938 -3.21875 2.859375 -3.21875 C 2.628906 -3.21875 2.4375 -3.109375 2.28125 -2.890625 C 2.125 -2.679688 2.046875 -2.429688 2.046875 -2.140625 L 2.046875 0 L 0.578125 0 L 0.578125 -7.296875 L 2.046875 -7.296875 L 2.046875 -3.765625 C 2.191406 -3.953125 2.375 -4.101562 2.59375 -4.21875 C 2.820312 -4.332031 3.078125 -4.390625 3.359375 -4.390625 C 3.929688 -4.390625 4.34375 -4.207031 4.59375 -3.84375 C 4.84375 -3.488281 4.96875 -3.019531 4.96875 -2.4375 Z M 4.96875 -2.4375 "/></g></g></g><g fill="#ffffff" fill-opacity="1"><g transform="translate(11.509843, 9.855828)"><g><path d="M 1.90625 -2.65625 L 3.828125 -2.65625 C 3.828125 -2.65625 3.816406 -2.695312 3.796875 -2.78125 C 3.785156 -2.863281 3.75 -2.957031 3.6875 -3.0625 C 3.625 -3.164062 3.523438 -3.253906 3.390625 -3.328125 C 3.265625 -3.410156 3.09375 -3.453125 2.875 -3.453125 C 2.644531 -3.453125 2.460938 -3.410156 2.328125 -3.328125 C 2.203125 -3.253906 2.109375 -3.164062 2.046875 -3.0625 C 1.984375 -2.957031 1.941406 -2.863281 1.921875 -2.78125 C 1.910156 -2.695312 1.90625 -2.65625 1.90625 -2.65625 Z M 5.234375 -2.234375 C 5.234375 -2.191406 5.226562 -2.144531 5.21875 -2.09375 C 5.21875 -2.050781 5.21875 -2.007812 5.21875 -1.96875 L 1.890625 -1.96875 C 1.890625 -1.800781 1.925781 -1.640625 2 -1.484375 C 2.070312 -1.328125 2.175781 -1.195312 2.3125 -1.09375 C 2.457031 -0.988281 2.625 -0.9375 2.8125 -0.9375 C 3.070312 -0.9375 3.273438 -1.003906 3.421875 -1.140625 C 3.578125 -1.285156 3.65625 -1.4375 3.65625 -1.59375 L 5.15625 -1.59375 C 5.03125 -1.03125 4.753906 -0.609375 4.328125 -0.328125 C 3.910156 -0.046875 3.414062 0.09375 2.84375 0.09375 C 2.351562 0.09375 1.914062 0.00390625 1.53125 -0.171875 C 1.15625 -0.359375 0.863281 -0.617188 0.65625 -0.953125 C 0.445312 -1.285156 0.34375 -1.679688 0.34375 -2.140625 C 0.34375 -2.585938 0.453125 -2.976562 0.671875 -3.3125 C 0.890625 -3.65625 1.1875 -3.921875 1.5625 -4.109375 C 1.9375 -4.296875 2.363281 -4.390625 2.84375 -4.390625 C 3.28125 -4.390625 3.675781 -4.304688 4.03125 -4.140625 C 4.394531 -3.972656 4.6875 -3.726562 4.90625 -3.40625 C 5.125 -3.09375 5.234375 -2.703125 5.234375 -2.234375 Z M 5.234375 -2.234375 "/></g></g></g><g fill="#ffffff" fill-opacity="1"><g transform="translate(17.076991, 9.855828)"><g><path d="M 4.96875 -2.4375 L 4.96875 0 L 3.515625 0 L 3.515625 -2.4375 C 3.515625 -2.6875 3.460938 -2.878906 3.359375 -3.015625 C 3.253906 -3.148438 3.085938 -3.21875 2.859375 -3.21875 C 2.628906 -3.21875 2.4375 -3.109375 2.28125 -2.890625 C 2.125 -2.679688 2.046875 -2.429688 2.046875 -2.140625 L 2.046875 0 L 0.578125 0 L 0.578125 -4.296875 L 2.046875 -4.296875 L 2.046875 -3.765625 C 2.191406 -3.953125 2.375 -4.101562 2.59375 -4.21875 C 2.820312 -4.332031 3.078125 -4.390625 3.359375 -4.390625 C 3.929688 -4.390625 4.34375 -4.207031 4.59375 -3.84375 C 4.84375 -3.488281 4.96875 -3.019531 4.96875 -2.4375 Z M 4.96875 -2.4375 "/></g></g></g><g fill="#ffffff" fill-opacity="1"><g transform="translate(22.488413, 9.855828)"><g><path d="M 0.5 -5.765625 C 0.5 -6.003906 0.582031 -6.207031 0.75 -6.375 C 0.914062 -6.539062 1.117188 -6.625 1.359375 -6.625 C 1.597656 -6.625 1.800781 -6.539062 1.96875 -6.375 C 2.132812 -6.207031 2.21875 -6.003906 2.21875 -5.765625 C 2.21875 -5.523438 2.132812 -5.320312 1.96875 -5.15625 C 1.800781 -4.988281 1.597656 -4.90625 1.359375 -4.90625 C 1.117188 -4.90625 0.914062 -4.988281 0.75 -5.15625 C 0.582031 -5.320312 0.5 -5.523438 0.5 -5.765625 Z M 2.09375 0 L 0.625 0 L 0.625 -4.296875 L 2.09375 -4.296875 Z M 2.09375 0 "/></g></g></g><g fill="#ffffff" fill-opacity="1"><g transform="translate(25.213598, 9.855828)"><g><path d="M 2.546875 -7.296875 L 1.140625 -4.390625 L 0.34375 -4.390625 L 1.09375 -7.296875 Z M 2.546875 -7.296875 "/></g></g></g><g fill="#ffffff" fill-opacity="1"><g transform="translate(27.851187, 9.855828)"><g><path d="M 4.5625 -2.984375 L 3.125 -2.984375 C 3.09375 -3.179688 3.003906 -3.3125 2.859375 -3.375 C 2.710938 -3.445312 2.570312 -3.484375 2.4375 -3.484375 C 2.289062 -3.484375 2.15625 -3.445312 2.03125 -3.375 C 1.90625 -3.3125 1.84375 -3.210938 1.84375 -3.078125 C 1.84375 -2.984375 1.910156 -2.910156 2.046875 -2.859375 C 2.179688 -2.816406 2.351562 -2.78125 2.5625 -2.75 C 2.769531 -2.71875 2.992188 -2.675781 3.234375 -2.625 C 3.472656 -2.582031 3.695312 -2.515625 3.90625 -2.421875 C 4.113281 -2.328125 4.285156 -2.191406 4.421875 -2.015625 C 4.554688 -1.835938 4.625 -1.59375 4.625 -1.28125 C 4.625 -0.945312 4.535156 -0.675781 4.359375 -0.46875 C 4.179688 -0.269531 3.929688 -0.125 3.609375 -0.03125 C 3.296875 0.0507812 2.929688 0.09375 2.515625 0.09375 C 2.085938 0.09375 1.703125 0.0351562 1.359375 -0.078125 C 1.023438 -0.191406 0.753906 -0.375 0.546875 -0.625 C 0.335938 -0.875 0.21875 -1.195312 0.1875 -1.59375 L 1.640625 -1.59375 C 1.640625 -1.382812 1.691406 -1.234375 1.796875 -1.140625 C 1.898438 -1.046875 2.023438 -0.984375 2.171875 -0.953125 C 2.316406 -0.929688 2.441406 -0.921875 2.546875 -0.921875 C 2.710938 -0.921875 2.851562 -0.945312 2.96875 -1 C 3.09375 -1.0625 3.15625 -1.15625 3.15625 -1.28125 C 3.15625 -1.425781 3.085938 -1.535156 2.953125 -1.609375 C 2.816406 -1.691406 2.644531 -1.75 2.4375 -1.78125 C 2.226562 -1.820312 2.003906 -1.863281 1.765625 -1.90625 C 1.523438 -1.945312 1.300781 -2.003906 1.09375 -2.078125 C 0.882812 -2.148438 0.710938 -2.257812 0.578125 -2.40625 C 0.441406 -2.5625 0.375 -2.769531 0.375 -3.03125 C 0.375 -3.46875 0.546875 -3.800781 0.890625 -4.03125 C 1.234375 -4.269531 1.757812 -4.390625 2.46875 -4.390625 C 3.03125 -4.390625 3.5 -4.28125 3.875 -4.0625 C 4.257812 -3.84375 4.488281 -3.484375 4.5625 -2.984375 Z M 4.5625 -2.984375 "/></g></g></g><g fill="#ffffff" fill-opacity="1"><g transform="translate(32.766242, 9.855828)"><g/></g></g><g fill="#ffffff" fill-opacity="1"><g transform="translate(35.199433, 9.855828)"><g><path d="M 3.78125 -1.9375 C 3.78125 -2.15625 3.695312 -2.34375 3.53125 -2.5 C 3.375 -2.65625 3.1875 -2.734375 2.96875 -2.734375 L 2.046875 -2.734375 L 2.046875 -1.140625 L 2.96875 -1.140625 C 3.1875 -1.140625 3.375 -1.21875 3.53125 -1.375 C 3.695312 -1.53125 3.78125 -1.71875 3.78125 -1.9375 Z M 3.3125 -4.703125 C 3.3125 -4.910156 3.234375 -5.085938 3.078125 -5.234375 C 2.929688 -5.390625 2.753906 -5.46875 2.546875 -5.46875 L 2.046875 -5.46875 L 2.046875 -3.9375 L 2.546875 -3.9375 C 2.753906 -3.9375 2.929688 -4.007812 3.078125 -4.15625 C 3.234375 -4.3125 3.3125 -4.492188 3.3125 -4.703125 Z M 5.265625 -1.890625 C 5.265625 -1.328125 5.085938 -0.867188 4.734375 -0.515625 C 4.390625 -0.171875 3.898438 0 3.265625 0 L 0.578125 0 L 0.578125 -6.625 L 2.859375 -6.625 C 3.234375 -6.625 3.554688 -6.546875 3.828125 -6.390625 C 4.109375 -6.242188 4.328125 -6.046875 4.484375 -5.796875 C 4.640625 -5.546875 4.71875 -5.269531 4.71875 -4.96875 C 4.71875 -4.625 4.644531 -4.332031 4.5 -4.09375 C 4.363281 -3.851562 4.171875 -3.675781 3.921875 -3.5625 C 4.296875 -3.476562 4.613281 -3.289062 4.875 -3 C 5.132812 -2.707031 5.265625 -2.335938 5.265625 -1.890625 Z M 5.265625 -1.890625 "/></g></g></g><g fill="#ffffff" fill-opacity="1"><g transform="translate(40.562194, 9.855828)"><g><path d="M 1.90625 -2.65625 L 3.828125 -2.65625 C 3.828125 -2.65625 3.816406 -2.695312 3.796875 -2.78125 C 3.785156 -2.863281 3.75 -2.957031 3.6875 -3.0625 C 3.625 -3.164062 3.523438 -3.253906 3.390625 -3.328125 C 3.265625 -3.410156 3.09375 -3.453125 2.875 -3.453125 C 2.644531 -3.453125 2.460938 -3.410156 2.328125 -3.328125 C 2.203125 -3.253906 2.109375 -3.164062 2.046875 -3.0625 C 1.984375 -2.957031 1.941406 -2.863281 1.921875 -2.78125 C 1.910156 -2.695312 1.90625 -2.65625 1.90625 -2.65625 Z M 5.234375 -2.234375 C 5.234375 -2.191406 5.226562 -2.144531 5.21875 -2.09375 C 5.21875 -2.050781 5.21875 -2.007812 5.21875 -1.96875 L 1.890625 -1.96875 C 1.890625 -1.800781 1.925781 -1.640625 2 -1.484375 C 2.070312 -1.328125 2.175781 -1.195312 2.3125 -1.09375 C 2.457031 -0.988281 2.625 -0.9375 2.8125 -0.9375 C 3.070312 -0.9375 3.273438 -1.003906 3.421875 -1.140625 C 3.578125 -1.285156 3.65625 -1.4375 3.65625 -1.59375 L 5.15625 -1.59375 C 5.03125 -1.03125 4.753906 -0.609375 4.328125 -0.328125 C 3.910156 -0.046875 3.414062 0.09375 2.84375 0.09375 C 2.351562 0.09375 1.914062 0.00390625 1.53125 -0.171875 C 1.15625 -0.359375 0.863281 -0.617188 0.65625 -0.953125 C 0.445312 -1.285156 0.34375 -1.679688 0.34375 -2.140625 C 0.34375 -2.585938 0.453125 -2.976562 0.671875 -3.3125 C 0.890625 -3.65625 1.1875 -3.921875 1.5625 -4.109375 C 1.9375 -4.296875 2.363281 -4.390625 2.84375 -4.390625 C 3.28125 -4.390625 3.675781 -4.304688 4.03125 -4.140625 C 4.394531 -3.972656 4.6875 -3.726562 4.90625 -3.40625 C 5.125 -3.09375 5.234375 -2.703125 5.234375 -2.234375 Z M 5.234375 -2.234375 "/></g></g></g><g fill="#ffffff" fill-opacity="1"><g transform="translate(46.129341, 9.855828)"><g><path d="M 4.5625 -2.984375 L 3.125 -2.984375 C 3.09375 -3.179688 3.003906 -3.3125 2.859375 -3.375 C 2.710938 -3.445312 2.570312 -3.484375 2.4375 -3.484375 C 2.289062 -3.484375 2.15625 -3.445312 2.03125 -3.375 C 1.90625 -3.3125 1.84375 -3.210938 1.84375 -3.078125 C 1.84375 -2.984375 1.910156 -2.910156 2.046875 -2.859375 C 2.179688 -2.816406 2.351562 -2.78125 2.5625 -2.75 C 2.769531 -2.71875 2.992188 -2.675781 3.234375 -2.625 C 3.472656 -2.582031 3.695312 -2.515625 3.90625 -2.421875 C 4.113281 -2.328125 4.285156 -2.191406 4.421875 -2.015625 C 4.554688 -1.835938 4.625 -1.59375 4.625 -1.28125 C 4.625 -0.945312 4.535156 -0.675781 4.359375 -0.46875 C 4.179688 -0.269531 3.929688 -0.125 3.609375 -0.03125 C 3.296875 0.0507812 2.929688 0.09375 2.515625 0.09375 C 2.085938 0.09375 1.703125 0.0351562 1.359375 -0.078125 C 1.023438 -0.191406 0.753906 -0.375 0.546875 -0.625 C 0.335938 -0.875 0.21875 -1.195312 0.1875 -1.59375 L 1.640625 -1.59375 C 1.640625 -1.382812 1.691406 -1.234375 1.796875 -1.140625 C 1.898438 -1.046875 2.023438 -0.984375 2.171875 -0.953125 C 2.316406 -0.929688 2.441406 -0.921875 2.546875 -0.921875 C 2.710938 -0.921875 2.851562 -0.945312 2.96875 -1 C 3.09375 -1.0625 3.15625 -1.15625 3.15625 -1.28125 C 3.15625 -1.425781 3.085938 -1.535156 2.953125 -1.609375 C 2.816406 -1.691406 2.644531 -1.75 2.4375 -1.78125 C 2.226562 -1.820312 2.003906 -1.863281 1.765625 -1.90625 C 1.523438 -1.945312 1.300781 -2.003906 1.09375 -2.078125 C 0.882812 -2.148438 0.710938 -2.257812 0.578125 -2.40625 C 0.441406 -2.5625 0.375 -2.769531 0.375 -3.03125 C 0.375 -3.46875 0.546875 -3.800781 0.890625 -4.03125 C 1.234375 -4.269531 1.757812 -4.390625 2.46875 -4.390625 C 3.03125 -4.390625 3.5 -4.28125 3.875 -4.0625 C 4.257812 -3.84375 4.488281 -3.484375 4.5625 -2.984375 Z M 4.5625 -2.984375 "/></g></g></g><g fill="#ffffff" fill-opacity="1"><g transform="translate(51.044396, 9.855828)"><g><path d="M 2.421875 -3.15625 L 2.421875 0 L 0.96875 0 L 0.96875 -3.15625 L 0.1875 -3.15625 L 0.1875 -4.296875 L 0.96875 -4.296875 L 0.96875 -5.921875 L 2.421875 -5.921875 L 2.421875 -4.296875 L 3.203125 -4.296875 L 3.203125 -3.15625 Z M 2.421875 -3.15625 "/></g></g></g><g fill="#ffffff" fill-opacity="1"><g transform="translate(54.441141, 9.855828)"><g/></g></g><g fill="#ffffff" fill-opacity="1"><g transform="translate(56.874331, 9.855828)"><g><path d="M 5.6875 -3.3125 C 5.6875 -3.65625 5.597656 -3.972656 5.421875 -4.265625 C 5.242188 -4.566406 5.003906 -4.804688 4.703125 -4.984375 C 4.410156 -5.171875 4.09375 -5.265625 3.75 -5.265625 C 3.40625 -5.265625 3.082031 -5.171875 2.78125 -4.984375 C 2.488281 -4.804688 2.25 -4.566406 2.0625 -4.265625 C 1.882812 -3.972656 1.796875 -3.65625 1.796875 -3.3125 C 1.796875 -2.976562 1.882812 -2.660156 2.0625 -2.359375 C 2.25 -2.066406 2.488281 -1.828125 2.78125 -1.640625 C 3.082031 -1.453125 3.40625 -1.359375 3.75 -1.359375 C 4.09375 -1.359375 4.410156 -1.453125 4.703125 -1.640625 C 5.003906 -1.828125 5.242188 -2.066406 5.421875 -2.359375 C 5.597656 -2.660156 5.6875 -2.976562 5.6875 -3.3125 Z M 7.15625 -3.3125 C 7.15625 -2.851562 7.0625 -2.414062 6.875 -2 C 6.695312 -1.59375 6.453125 -1.234375 6.140625 -0.921875 C 5.828125 -0.609375 5.460938 -0.359375 5.046875 -0.171875 C 4.640625 0.00390625 4.207031 0.09375 3.75 0.09375 C 3.289062 0.09375 2.851562 0.00390625 2.4375 -0.171875 C 2.03125 -0.359375 1.671875 -0.609375 1.359375 -0.921875 C 1.046875 -1.234375 0.796875 -1.59375 0.609375 -2 C 0.429688 -2.414062 0.34375 -2.851562 0.34375 -3.3125 C 0.34375 -3.769531 0.429688 -4.203125 0.609375 -4.609375 C 0.796875 -5.023438 1.046875 -5.390625 1.359375 -5.703125 C 1.671875 -6.015625 2.03125 -6.257812 2.4375 -6.4375 C 2.851562 -6.625 3.289062 -6.71875 3.75 -6.71875 C 4.207031 -6.71875 4.640625 -6.625 5.046875 -6.4375 C 5.460938 -6.257812 5.828125 -6.015625 6.140625 -5.703125 C 6.453125 -5.390625 6.695312 -5.023438 6.875 -4.609375 C 7.0625 -4.203125 7.15625 -3.769531 7.15625 -3.3125 Z M 7.15625 -3.3125 "/></g></g></g><g fill="#ffffff" fill-opacity="1"><g transform="translate(64.368574, 9.855828)"><g><path d="M 2.28125 -7.296875 L 3.375 -7.296875 L 3.375 -6.15625 L 2.75 -6.15625 C 2.59375 -6.15625 2.488281 -6.109375 2.4375 -6.015625 C 2.382812 -5.929688 2.359375 -5.785156 2.359375 -5.578125 L 2.359375 -4.296875 L 3.375 -4.296875 L 3.375 -3.15625 L 2.359375 -3.15625 L 2.359375 0 L 0.90625 0 L 0.90625 -3.15625 L 0.296875 -3.15625 L 0.296875 -4.296875 L 0.90625 -4.296875 L 0.90625 -5.75 C 0.90625 -6.28125 1.035156 -6.671875 1.296875 -6.921875 C 1.566406 -7.171875 1.894531 -7.296875 2.28125 -7.296875 Z M 2.28125 -7.296875 "/></g></g></g><g fill="#ffffff" fill-opacity="1"><g transform="translate(67.901575, 9.855828)"><g><path d="M 2.28125 -7.296875 L 3.375 -7.296875 L 3.375 -6.15625 L 2.75 -6.15625 C 2.59375 -6.15625 2.488281 -6.109375 2.4375 -6.015625 C 2.382812 -5.929688 2.359375 -5.785156 2.359375 -5.578125 L 2.359375 -4.296875 L 3.375 -4.296875 L 3.375 -3.15625 L 2.359375 -3.15625 L 2.359375 0 L 0.90625 0 L 0.90625 -3.15625 L 0.296875 -3.15625 L 0.296875 -4.296875 L 0.90625 -4.296875 L 0.90625 -5.75 C 0.90625 -6.28125 1.035156 -6.671875 1.296875 -6.921875 C 1.566406 -7.171875 1.894531 -7.296875 2.28125 -7.296875 Z M 2.28125 -7.296875 "/></g></g></g><g fill="#ffffff" fill-opacity="1"><g transform="translate(71.434577, 9.855828)"><g><path d="M 1.90625 -2.65625 L 3.828125 -2.65625 C 3.828125 -2.65625 3.816406 -2.695312 3.796875 -2.78125 C 3.785156 -2.863281 3.75 -2.957031 3.6875 -3.0625 C 3.625 -3.164062 3.523438 -3.253906 3.390625 -3.328125 C 3.265625 -3.410156 3.09375 -3.453125 2.875 -3.453125 C 2.644531 -3.453125 2.460938 -3.410156 2.328125 -3.328125 C 2.203125 -3.253906 2.109375 -3.164062 2.046875 -3.0625 C 1.984375 -2.957031 1.941406 -2.863281 1.921875 -2.78125 C 1.910156 -2.695312 1.90625 -2.65625 1.90625 -2.65625 Z M 5.234375 -2.234375 C 5.234375 -2.191406 5.226562 -2.144531 5.21875 -2.09375 C 5.21875 -2.050781 5.21875 -2.007812 5.21875 -1.96875 L 1.890625 -1.96875 C 1.890625 -1.800781 1.925781 -1.640625 2 -1.484375 C 2.070312 -1.328125 2.175781 -1.195312 2.3125 -1.09375 C 2.457031 -0.988281 2.625 -0.9375 2.8125 -0.9375 C 3.070312 -0.9375 3.273438 -1.003906 3.421875 -1.140625 C 3.578125 -1.285156 3.65625 -1.4375 3.65625 -1.59375 L 5.15625 -1.59375 C 5.03125 -1.03125 4.753906 -0.609375 4.328125 -0.328125 C 3.910156 -0.046875 3.414062 0.09375 2.84375 0.09375 C 2.351562 0.09375 1.914062 0.00390625 1.53125 -0.171875 C 1.15625 -0.359375 0.863281 -0.617188 0.65625 -0.953125 C 0.445312 -1.285156 0.34375 -1.679688 0.34375 -2.140625 C 0.34375 -2.585938 0.453125 -2.976562 0.671875 -3.3125 C 0.890625 -3.65625 1.1875 -3.921875 1.5625 -4.109375 C 1.9375 -4.296875 2.363281 -4.390625 2.84375 -4.390625 C 3.28125 -4.390625 3.675781 -4.304688 4.03125 -4.140625 C 4.394531 -3.972656 4.6875 -3.726562 4.90625 -3.40625 C 5.125 -3.09375 5.234375 -2.703125 5.234375 -2.234375 Z M 5.234375 -2.234375 "/></g></g></g><g fill="#ffffff" fill-opacity="1"><g transform="translate(77.001725, 9.855828)"><g><path d="M 3.015625 -3.21875 C 2.828125 -3.21875 2.660156 -3.160156 2.515625 -3.046875 C 2.367188 -2.941406 2.253906 -2.804688 2.171875 -2.640625 C 2.085938 -2.484375 2.046875 -2.316406 2.046875 -2.140625 L 2.046875 0 L 0.578125 0 L 0.578125 -4.296875 L 2.046875 -4.296875 L 2.046875 -3.765625 C 2.148438 -3.929688 2.296875 -4.078125 2.484375 -4.203125 C 2.679688 -4.328125 2.910156 -4.390625 3.171875 -4.390625 C 3.234375 -4.390625 3.304688 -4.378906 3.390625 -4.359375 C 3.484375 -4.347656 3.554688 -4.328125 3.609375 -4.296875 L 3.609375 -2.96875 L 3.59375 -2.96875 C 3.519531 -3.0625 3.429688 -3.125 3.328125 -3.15625 C 3.222656 -3.195312 3.117188 -3.21875 3.015625 -3.21875 Z M 3.015625 -3.21875 "/></g></g></g><g fill="#ffffff" fill-opacity="1"><g transform="translate(80.709918, 9.855828)"><g><path d="M 4.5625 -2.984375 L 3.125 -2.984375 C 3.09375 -3.179688 3.003906 -3.3125 2.859375 -3.375 C 2.710938 -3.445312 2.570312 -3.484375 2.4375 -3.484375 C 2.289062 -3.484375 2.15625 -3.445312 2.03125 -3.375 C 1.90625 -3.3125 1.84375 -3.210938 1.84375 -3.078125 C 1.84375 -2.984375 1.910156 -2.910156 2.046875 -2.859375 C 2.179688 -2.816406 2.351562 -2.78125 2.5625 -2.75 C 2.769531 -2.71875 2.992188 -2.675781 3.234375 -2.625 C 3.472656 -2.582031 3.695312 -2.515625 3.90625 -2.421875 C 4.113281 -2.328125 4.285156 -2.191406 4.421875 -2.015625 C 4.554688 -1.835938 4.625 -1.59375 4.625 -1.28125 C 4.625 -0.945312 4.535156 -0.675781 4.359375 -0.46875 C 4.179688 -0.269531 3.929688 -0.125 3.609375 -0.03125 C 3.296875 0.0507812 2.929688 0.09375 2.515625 0.09375 C 2.085938 0.09375 1.703125 0.0351562 1.359375 -0.078125 C 1.023438 -0.191406 0.753906 -0.375 0.546875 -0.625 C 0.335938 -0.875 0.21875 -1.195312 0.1875 -1.59375 L 1.640625 -1.59375 C 1.640625 -1.382812 1.691406 -1.234375 1.796875 -1.140625 C 1.898438 -1.046875 2.023438 -0.984375 2.171875 -0.953125 C 2.316406 -0.929688 2.441406 -0.921875 2.546875 -0.921875 C 2.710938 -0.921875 2.851562 -0.945312 2.96875 -1 C 3.09375 -1.0625 3.15625 -1.15625 3.15625 -1.28125 C 3.15625 -1.425781 3.085938 -1.535156 2.953125 -1.609375 C 2.816406 -1.691406 2.644531 -1.75 2.4375 -1.78125 C 2.226562 -1.820312 2.003906 -1.863281 1.765625 -1.90625 C 1.523438 -1.945312 1.300781 -2.003906 1.09375 -2.078125 C 0.882812 -2.148438 0.710938 -2.257812 0.578125 -2.40625 C 0.441406 -2.5625 0.375 -2.769531 0.375 -3.03125 C 0.375 -3.46875 0.546875 -3.800781 0.890625 -4.03125 C 1.234375 -4.269531 1.757812 -4.390625 2.46875 -4.390625 C 3.03125 -4.390625 3.5 -4.28125 3.875 -4.0625 C 4.257812 -3.84375 4.488281 -3.484375 4.5625 -2.984375 Z M 4.5625 -2.984375 "/></g></g></g><g fill="#ffffff" fill-opacity="1"><g transform="translate(85.624973, 9.855828)"><g/></g></g><g fill="#ffffff" fill-opacity="1"><g transform="translate(88.058163, 9.855828)"><g><path d="M 3.9375 -2.140625 C 3.9375 -2.328125 3.890625 -2.5 3.796875 -2.65625 C 3.710938 -2.820312 3.59375 -2.957031 3.4375 -3.0625 C 3.289062 -3.164062 3.117188 -3.21875 2.921875 -3.21875 C 2.722656 -3.21875 2.546875 -3.164062 2.390625 -3.0625 C 2.242188 -2.957031 2.125 -2.820312 2.03125 -2.65625 C 1.9375 -2.5 1.890625 -2.328125 1.890625 -2.140625 C 1.890625 -1.953125 1.9375 -1.773438 2.03125 -1.609375 C 2.125 -1.453125 2.242188 -1.320312 2.390625 -1.21875 C 2.546875 -1.125 2.722656 -1.078125 2.921875 -1.078125 C 3.117188 -1.078125 3.289062 -1.125 3.4375 -1.21875 C 3.59375 -1.320312 3.710938 -1.453125 3.796875 -1.609375 C 3.890625 -1.773438 3.9375 -1.953125 3.9375 -2.140625 Z M 5.40625 -4.28125 L 5.40625 0 L 3.9375 0 L 3.9375 -0.515625 C 3.800781 -0.296875 3.585938 -0.140625 3.296875 -0.046875 C 3.015625 0.046875 2.738281 0.09375 2.46875 0.09375 C 2.070312 0.09375 1.707031 -0.0078125 1.375 -0.21875 C 1.050781 -0.425781 0.796875 -0.695312 0.609375 -1.03125 C 0.429688 -1.375 0.34375 -1.742188 0.34375 -2.140625 C 0.34375 -2.535156 0.429688 -2.898438 0.609375 -3.234375 C 0.796875 -3.578125 1.050781 -3.851562 1.375 -4.0625 C 1.707031 -4.28125 2.070312 -4.390625 2.46875 -4.390625 C 2.738281 -4.390625 3.003906 -4.34375 3.265625 -4.25 C 3.523438 -4.164062 3.75 -4.003906 3.9375 -3.765625 L 3.9375 -4.28125 Z M 5.40625 -4.28125 "/></g></g></g><g fill="#ffffff" fill-opacity="1"><g transform="translate(94.043823, 9.855828)"><g><path d="M 2.421875 -3.15625 L 2.421875 0 L 0.96875 0 L 0.96875 -3.15625 L 0.1875 -3.15625 L 0.1875 -4.296875 L 0.96875 -4.296875 L 0.96875 -5.921875 L 2.421875 -5.921875 L 2.421875 -4.296875 L 3.203125 -4.296875 L 3.203125 -3.15625 Z M 2.421875 -3.15625 "/></g></g></g><g fill="#ffffff" fill-opacity="1"><g transform="translate(97.440567, 9.855828)"><g/></g></g><g fill="#ffffff" fill-opacity="1"><g transform="translate(99.873757, 9.855828)"><g><path d="M 2.515625 0 L 2.515625 -3.15625 L 0.078125 -6.625 L 1.828125 -6.625 L 3.25 -4.328125 L 4.6875 -6.625 L 6.421875 -6.625 L 3.984375 -3.15625 L 3.984375 0 Z M 2.515625 0 "/></g></g></g><g fill="#ffffff" fill-opacity="1"><g transform="translate(106.375252, 9.855828)"><g><path d="M 2.796875 -1.015625 C 3.054688 -1.015625 3.253906 -1.066406 3.390625 -1.171875 C 3.535156 -1.285156 3.632812 -1.425781 3.6875 -1.59375 C 3.75 -1.769531 3.78125 -1.945312 3.78125 -2.125 C 3.78125 -2.3125 3.75 -2.488281 3.6875 -2.65625 C 3.632812 -2.820312 3.535156 -2.957031 3.390625 -3.0625 C 3.242188 -3.175781 3.046875 -3.234375 2.796875 -3.234375 C 2.546875 -3.234375 2.34375 -3.175781 2.1875 -3.0625 C 2.039062 -2.957031 1.9375 -2.820312 1.875 -2.65625 C 1.820312 -2.488281 1.796875 -2.3125 1.796875 -2.125 C 1.796875 -1.945312 1.820312 -1.769531 1.875 -1.59375 C 1.9375 -1.425781 2.039062 -1.285156 2.1875 -1.171875 C 2.332031 -1.066406 2.535156 -1.015625 2.796875 -1.015625 Z M 2.796875 -4.375 C 3.242188 -4.375 3.648438 -4.28125 4.015625 -4.09375 C 4.390625 -3.90625 4.6875 -3.644531 4.90625 -3.3125 C 5.125 -2.976562 5.234375 -2.585938 5.234375 -2.140625 C 5.234375 -1.679688 5.125 -1.285156 4.90625 -0.953125 C 4.6875 -0.617188 4.390625 -0.359375 4.015625 -0.171875 C 3.648438 0.00390625 3.242188 0.09375 2.796875 0.09375 C 2.335938 0.09375 1.921875 0.00390625 1.546875 -0.171875 C 1.179688 -0.359375 0.890625 -0.617188 0.671875 -0.953125 C 0.453125 -1.285156 0.34375 -1.679688 0.34375 -2.140625 C 0.34375 -2.585938 0.453125 -2.976562 0.671875 -3.3125 C 0.890625 -3.644531 1.1875 -3.90625 1.5625 -4.09375 C 1.9375 -4.28125 2.347656 -4.375 2.796875 -4.375 Z M 2.796875 -4.375 "/></g></g></g><g fill="#ffffff" fill-opacity="1"><g transform="translate(111.952139, 9.855828)"><g><path d="M 0.484375 -1.84375 L 0.484375 -4.296875 L 1.953125 -4.296875 L 1.953125 -1.84375 C 1.953125 -1.601562 2.003906 -1.414062 2.109375 -1.28125 C 2.210938 -1.144531 2.375 -1.078125 2.59375 -1.078125 C 2.820312 -1.078125 3.015625 -1.179688 3.171875 -1.390625 C 3.335938 -1.609375 3.421875 -1.859375 3.421875 -2.140625 L 3.421875 -4.296875 L 4.875 -4.296875 L 4.875 0 L 3.421875 0 L 3.421875 -0.53125 C 3.273438 -0.34375 3.085938 -0.191406 2.859375 -0.078125 C 2.640625 0.0351562 2.390625 0.09375 2.109375 0.09375 C 1.535156 0.09375 1.117188 -0.0820312 0.859375 -0.4375 C 0.609375 -0.800781 0.484375 -1.269531 0.484375 -1.84375 Z M 0.484375 -1.84375 "/></g></g></g><g fill="#ffffff" fill-opacity="1"><g transform="translate(117.412224, 9.855828)"><g><path d="M 3.015625 -3.21875 C 2.828125 -3.21875 2.660156 -3.160156 2.515625 -3.046875 C 2.367188 -2.941406 2.253906 -2.804688 2.171875 -2.640625 C 2.085938 -2.484375 2.046875 -2.316406 2.046875 -2.140625 L 2.046875 0 L 0.578125 0 L 0.578125 -4.296875 L 2.046875 -4.296875 L 2.046875 -3.765625 C 2.148438 -3.929688 2.296875 -4.078125 2.484375 -4.203125 C 2.679688 -4.328125 2.910156 -4.390625 3.171875 -4.390625 C 3.234375 -4.390625 3.304688 -4.378906 3.390625 -4.359375 C 3.484375 -4.347656 3.554688 -4.328125 3.609375 -4.296875 L 3.609375 -2.96875 L 3.59375 -2.96875 C 3.519531 -3.0625 3.429688 -3.125 3.328125 -3.15625 C 3.222656 -3.195312 3.117188 -3.21875 3.015625 -3.21875 Z M 3.015625 -3.21875 "/></g></g></g><g fill="#ffffff" fill-opacity="1"><g transform="translate(121.120417, 9.855828)"><g/></g></g><g fill="#ffffff" fill-opacity="1"><g transform="translate(123.553607, 9.855828)"><g><path d="M 4.328125 -2.65625 L 2.046875 -2.65625 L 2.046875 0 L 0.578125 0 L 0.578125 -6.625 L 4.421875 -6.625 L 4.421875 -5.296875 L 2.046875 -5.296875 L 2.046875 -3.984375 L 4.328125 -3.984375 Z M 4.328125 -2.65625 "/></g></g></g><g fill="#ffffff" fill-opacity="1"><g transform="translate(128.458935, 9.855828)"><g><path d="M 0.5 -5.765625 C 0.5 -6.003906 0.582031 -6.207031 0.75 -6.375 C 0.914062 -6.539062 1.117188 -6.625 1.359375 -6.625 C 1.597656 -6.625 1.800781 -6.539062 1.96875 -6.375 C 2.132812 -6.207031 2.21875 -6.003906 2.21875 -5.765625 C 2.21875 -5.523438 2.132812 -5.320312 1.96875 -5.15625 C 1.800781 -4.988281 1.597656 -4.90625 1.359375 -4.90625 C 1.117188 -4.90625 0.914062 -4.988281 0.75 -5.15625 C 0.582031 -5.320312 0.5 -5.523438 0.5 -5.765625 Z M 2.09375 0 L 0.625 0 L 0.625 -4.296875 L 2.09375 -4.296875 Z M 2.09375 0 "/></g></g></g><g fill="#ffffff" fill-opacity="1"><g transform="translate(131.18412, 9.855828)"><g><path d="M 4.96875 -2.4375 L 4.96875 0 L 3.515625 0 L 3.515625 -2.4375 C 3.515625 -2.6875 3.460938 -2.878906 3.359375 -3.015625 C 3.253906 -3.148438 3.085938 -3.21875 2.859375 -3.21875 C 2.628906 -3.21875 2.4375 -3.109375 2.28125 -2.890625 C 2.125 -2.679688 2.046875 -2.429688 2.046875 -2.140625 L 2.046875 0 L 0.578125 0 L 0.578125 -4.296875 L 2.046875 -4.296875 L 2.046875 -3.765625 C 2.191406 -3.953125 2.375 -4.101562 2.59375 -4.21875 C 2.820312 -4.332031 3.078125 -4.390625 3.359375 -4.390625 C 3.929688 -4.390625 4.34375 -4.207031 4.59375 -3.84375 C 4.84375 -3.488281 4.96875 -3.019531 4.96875 -2.4375 Z M 4.96875 -2.4375 "/></g></g></g><g clip-path="url(#3773f4429b)"><g fill="#ffffff" fill-opacity="1"><g transform="translate(136.595543, 9.855828)"><g><path d="M 2.921875 -1.078125 C 3.117188 -1.078125 3.289062 -1.125 3.4375 -1.21875 C 3.59375 -1.320312 3.710938 -1.457031 3.796875 -1.625 C 3.890625 -1.789062 3.9375 -1.96875 3.9375 -2.15625 C 3.9375 -2.34375 3.890625 -2.515625 3.796875 -2.671875 C 3.710938 -2.835938 3.59375 -2.96875 3.4375 -3.0625 C 3.289062 -3.164062 3.117188 -3.21875 2.921875 -3.21875 C 2.722656 -3.21875 2.546875 -3.164062 2.390625 -3.0625 C 2.242188 -2.96875 2.125 -2.835938 2.03125 -2.671875 C 1.9375 -2.515625 1.890625 -2.34375 1.890625 -2.15625 C 1.890625 -1.96875 1.9375 -1.789062 2.03125 -1.625 C 2.125 -1.457031 2.242188 -1.320312 2.390625 -1.21875 C 2.546875 -1.125 2.722656 -1.078125 2.921875 -1.078125 Z M 3.9375 -3.765625 L 3.9375 -4.296875 L 5.40625 -4.296875 L 5.40625 -0.015625 C 5.40625 0.453125 5.289062 0.867188 5.0625 1.234375 C 4.84375 1.609375 4.546875 1.898438 4.171875 2.109375 C 3.796875 2.328125 3.378906 2.4375 2.921875 2.4375 C 2.628906 2.4375 2.335938 2.394531 2.046875 2.3125 C 1.753906 2.238281 1.488281 2.125 1.25 1.96875 C 1.007812 1.820312 0.8125 1.628906 0.65625 1.390625 C 0.507812 1.148438 0.425781 0.867188 0.40625 0.546875 L 1.875 0.546875 C 1.925781 0.796875 2.039062 0.992188 2.21875 1.140625 C 2.394531 1.285156 2.601562 1.359375 2.84375 1.359375 C 3.050781 1.359375 3.238281 1.300781 3.40625 1.1875 C 3.570312 1.070312 3.703125 0.921875 3.796875 0.734375 C 3.890625 0.546875 3.9375 0.351562 3.9375 0.15625 L 3.9375 -0.53125 C 3.800781 -0.300781 3.585938 -0.140625 3.296875 -0.046875 C 3.015625 0.046875 2.738281 0.09375 2.46875 0.09375 C 2.070312 0.09375 1.707031 -0.0078125 1.375 -0.21875 C 1.050781 -0.425781 0.796875 -0.703125 0.609375 -1.046875 C 0.429688 -1.390625 0.34375 -1.757812 0.34375 -2.15625 C 0.34375 -2.550781 0.429688 -2.914062 0.609375 -3.25 C 0.796875 -3.59375 1.050781 -3.867188 1.375 -4.078125 C 1.707031 -4.285156 2.070312 -4.390625 2.46875 -4.390625 C 2.738281 -4.390625 3 -4.347656 3.25 -4.265625 C 3.5 -4.179688 3.726562 -4.015625 3.9375 -3.765625 Z M 3.9375 -3.765625 "/></g></g></g></g><g fill="#ffffff" fill-opacity="1"><g transform="translate(142.581202, 9.855828)"><g><path d="M 1.90625 -2.65625 L 3.828125 -2.65625 C 3.828125 -2.65625 3.816406 -2.695312 3.796875 -2.78125 C 3.785156 -2.863281 3.75 -2.957031 3.6875 -3.0625 C 3.625 -3.164062 3.523438 -3.253906 3.390625 -3.328125 C 3.265625 -3.410156 3.09375 -3.453125 2.875 -3.453125 C 2.644531 -3.453125 2.460938 -3.410156 2.328125 -3.328125 C 2.203125 -3.253906 2.109375 -3.164062 2.046875 -3.0625 C 1.984375 -2.957031 1.941406 -2.863281 1.921875 -2.78125 C 1.910156 -2.695312 1.90625 -2.65625 1.90625 -2.65625 Z M 5.234375 -2.234375 C 5.234375 -2.191406 5.226562 -2.144531 5.21875 -2.09375 C 5.21875 -2.050781 5.21875 -2.007812 5.21875 -1.96875 L 1.890625 -1.96875 C 1.890625 -1.800781 1.925781 -1.640625 2 -1.484375 C 2.070312 -1.328125 2.175781 -1.195312 2.3125 -1.09375 C 2.457031 -0.988281 2.625 -0.9375 2.8125 -0.9375 C 3.070312 -0.9375 3.273438 -1.003906 3.421875 -1.140625 C 3.578125 -1.285156 3.65625 -1.4375 3.65625 -1.59375 L 5.15625 -1.59375 C 5.03125 -1.03125 4.753906 -0.609375 4.328125 -0.328125 C 3.910156 -0.046875 3.414062 0.09375 2.84375 0.09375 C 2.351562 0.09375 1.914062 0.00390625 1.53125 -0.171875 C 1.15625 -0.359375 0.863281 -0.617188 0.65625 -0.953125 C 0.445312 -1.285156 0.34375 -1.679688 0.34375 -2.140625 C 0.34375 -2.585938 0.453125 -2.976562 0.671875 -3.3125 C 0.890625 -3.65625 1.1875 -3.921875 1.5625 -4.109375 C 1.9375 -4.296875 2.363281 -4.390625 2.84375 -4.390625 C 3.28125 -4.390625 3.675781 -4.304688 4.03125 -4.140625 C 4.394531 -3.972656 4.6875 -3.726562 4.90625 -3.40625 C 5.125 -3.09375 5.234375 -2.703125 5.234375 -2.234375 Z M 5.234375 -2.234375 "/></g></g></g><g fill="#ffffff" fill-opacity="1"><g transform="translate(148.148349, 9.855828)"><g><path d="M 3.015625 -3.21875 C 2.828125 -3.21875 2.660156 -3.160156 2.515625 -3.046875 C 2.367188 -2.941406 2.253906 -2.804688 2.171875 -2.640625 C 2.085938 -2.484375 2.046875 -2.316406 2.046875 -2.140625 L 2.046875 0 L 0.578125 0 L 0.578125 -4.296875 L 2.046875 -4.296875 L 2.046875 -3.765625 C 2.148438 -3.929688 2.296875 -4.078125 2.484375 -4.203125 C 2.679688 -4.328125 2.910156 -4.390625 3.171875 -4.390625 C 3.234375 -4.390625 3.304688 -4.378906 3.390625 -4.359375 C 3.484375 -4.347656 3.554688 -4.328125 3.609375 -4.296875 L 3.609375 -2.96875 L 3.59375 -2.96875 C 3.519531 -3.0625 3.429688 -3.125 3.328125 -3.15625 C 3.222656 -3.195312 3.117188 -3.21875 3.015625 -3.21875 Z M 3.015625 -3.21875 "/></g></g></g><g fill="#ffffff" fill-opacity="1"><g transform="translate(151.856543, 9.855828)"><g><path d="M 2.421875 -3.15625 L 2.421875 0 L 0.96875 0 L 0.96875 -3.15625 L 0.1875 -3.15625 L 0.1875 -4.296875 L 0.96875 -4.296875 L 0.96875 -5.921875 L 2.421875 -5.921875 L 2.421875 -4.296875 L 3.203125 -4.296875 L 3.203125 -3.15625 Z M 2.421875 -3.15625 "/></g></g></g><g fill="#ffffff" fill-opacity="1"><g transform="translate(155.253287, 9.855828)"><g><path d="M 0.5 -5.765625 C 0.5 -6.003906 0.582031 -6.207031 0.75 -6.375 C 0.914062 -6.539062 1.117188 -6.625 1.359375 -6.625 C 1.597656 -6.625 1.800781 -6.539062 1.96875 -6.375 C 2.132812 -6.207031 2.21875 -6.003906 2.21875 -5.765625 C 2.21875 -5.523438 2.132812 -5.320312 1.96875 -5.15625 C 1.800781 -4.988281 1.597656 -4.90625 1.359375 -4.90625 C 1.117188 -4.90625 0.914062 -4.988281 0.75 -5.15625 C 0.582031 -5.320312 0.5 -5.523438 0.5 -5.765625 Z M 2.09375 0 L 0.625 0 L 0.625 -4.296875 L 2.09375 -4.296875 Z M 2.09375 0 "/></g></g></g><g clip-path="url(#587b2f6450)"><g fill="#ffffff" fill-opacity="1"><g transform="translate(157.978472, 9.855828)"><g><path d="M 2.046875 -2.140625 C 2.046875 -1.953125 2.085938 -1.773438 2.171875 -1.609375 C 2.265625 -1.453125 2.390625 -1.320312 2.546875 -1.21875 C 2.703125 -1.125 2.875 -1.078125 3.0625 -1.078125 C 3.257812 -1.078125 3.429688 -1.125 3.578125 -1.21875 C 3.734375 -1.320312 3.859375 -1.453125 3.953125 -1.609375 C 4.046875 -1.773438 4.09375 -1.953125 4.09375 -2.140625 C 4.09375 -2.328125 4.046875 -2.5 3.953125 -2.65625 C 3.859375 -2.820312 3.734375 -2.957031 3.578125 -3.0625 C 3.429688 -3.164062 3.257812 -3.21875 3.0625 -3.21875 C 2.875 -3.21875 2.703125 -3.164062 2.546875 -3.0625 C 2.390625 -2.957031 2.265625 -2.820312 2.171875 -2.65625 C 2.085938 -2.5 2.046875 -2.328125 2.046875 -2.140625 Z M 2.046875 2.4375 L 0.578125 2.4375 L 0.578125 -4.296875 L 2.046875 -4.296875 L 2.046875 -3.765625 C 2.234375 -4.003906 2.453125 -4.164062 2.703125 -4.25 C 2.960938 -4.34375 3.234375 -4.390625 3.515625 -4.390625 C 3.921875 -4.390625 4.285156 -4.28125 4.609375 -4.0625 C 4.929688 -3.851562 5.179688 -3.578125 5.359375 -3.234375 C 5.546875 -2.898438 5.640625 -2.535156 5.640625 -2.140625 C 5.640625 -1.742188 5.546875 -1.375 5.359375 -1.03125 C 5.179688 -0.695312 4.929688 -0.425781 4.609375 -0.21875 C 4.285156 -0.0078125 3.921875 0.09375 3.515625 0.09375 C 3.234375 0.09375 2.953125 0.046875 2.671875 -0.046875 C 2.398438 -0.140625 2.191406 -0.296875 2.046875 -0.515625 Z M 2.046875 2.4375 "/></g></g></g></g><g fill="#ffffff" fill-opacity="1"><g transform="translate(163.964131, 9.855828)"><g><path d="M 4.5625 -2.984375 L 3.125 -2.984375 C 3.09375 -3.179688 3.003906 -3.3125 2.859375 -3.375 C 2.710938 -3.445312 2.570312 -3.484375 2.4375 -3.484375 C 2.289062 -3.484375 2.15625 -3.445312 2.03125 -3.375 C 1.90625 -3.3125 1.84375 -3.210938 1.84375 -3.078125 C 1.84375 -2.984375 1.910156 -2.910156 2.046875 -2.859375 C 2.179688 -2.816406 2.351562 -2.78125 2.5625 -2.75 C 2.769531 -2.71875 2.992188 -2.675781 3.234375 -2.625 C 3.472656 -2.582031 3.695312 -2.515625 3.90625 -2.421875 C 4.113281 -2.328125 4.285156 -2.191406 4.421875 -2.015625 C 4.554688 -1.835938 4.625 -1.59375 4.625 -1.28125 C 4.625 -0.945312 4.535156 -0.675781 4.359375 -0.46875 C 4.179688 -0.269531 3.929688 -0.125 3.609375 -0.03125 C 3.296875 0.0507812 2.929688 0.09375 2.515625 0.09375 C 2.085938 0.09375 1.703125 0.0351562 1.359375 -0.078125 C 1.023438 -0.191406 0.753906 -0.375 0.546875 -0.625 C 0.335938 -0.875 0.21875 -1.195312 0.1875 -1.59375 L 1.640625 -1.59375 C 1.640625 -1.382812 1.691406 -1.234375 1.796875 -1.140625 C 1.898438 -1.046875 2.023438 -0.984375 2.171875 -0.953125 C 2.316406 -0.929688 2.441406 -0.921875 2.546875 -0.921875 C 2.710938 -0.921875 2.851562 -0.945312 2.96875 -1 C 3.09375 -1.0625 3.15625 -1.15625 3.15625 -1.28125 C 3.15625 -1.425781 3.085938 -1.535156 2.953125 -1.609375 C 2.816406 -1.691406 2.644531 -1.75 2.4375 -1.78125 C 2.226562 -1.820312 2.003906 -1.863281 1.765625 -1.90625 C 1.523438 -1.945312 1.300781 -2.003906 1.09375 -2.078125 C 0.882812 -2.148438 0.710938 -2.257812 0.578125 -2.40625 C 0.441406 -2.5625 0.375 -2.769531 0.375 -3.03125 C 0.375 -3.46875 0.546875 -3.800781 0.890625 -4.03125 C 1.234375 -4.269531 1.757812 -4.390625 2.46875 -4.390625 C 3.03125 -4.390625 3.5 -4.28125 3.875 -4.0625 C 4.257812 -3.84375 4.488281 -3.484375 4.5625 -2.984375 Z M 4.5625 -2.984375 "/></g></g></g></g></g></svg>